<?xml version="1.0" standalone="no"?>
<!DOCTYPE svg PUBLIC "-//W3C//DTD SVG 20010904//EN"
 "http://www.w3.org/TR/2001/REC-SVG-20010904/DTD/svg10.dtd">
<svg version="1.0" xmlns="http://www.w3.org/2000/svg"
 width="400.000000pt" height="400.000000pt" viewBox="0 0 400.000000 400.000000"
 preserveAspectRatio="xMidYMid meet">
<metadata>
Created by potrace 1.14, written by Peter Selinger 2001-2017
</metadata>
<g transform="translate(0.000000,400.000000) scale(0.100000,-0.100000)"
fill="#000000" stroke="none">
<path d="M12 3992 c-15 -10 -15 -172 0 -172 6 0 8 -6 5 -14 -6 -16 40 -29 49
-14 3 4 9 6 14 3 5 -3 11 -1 14 4 4 5 2 13 -4 16 -8 5 -7 11 1 21 15 18 0 18
-24 0 -13 -10 -15 -15 -5 -19 7 -2 10 -8 6 -12 -4 -4 -15 -4 -25 0 -17 6 -16
8 5 25 20 16 21 20 7 33 -20 21 -19 27 8 28 18 1 16 3 -8 9 -28 7 -28 8 -5 9
l25 1 -28 25 c-26 25 -36 42 -18 31 7 -5 21 15 21 30 0 7 -24 4 -38 -4z"/>
<path d="M3503 3988 c15 -5 27 -16 27 -23 0 -26 22 -63 41 -68 11 -3 19 -12
19 -20 0 -9 11 -14 31 -15 17 0 36 -5 42 -10 7 -5 44 -17 84 -26 107 -24 118
-30 185 -101 33 -36 63 -64 65 -61 3 2 -16 26 -41 52 -25 26 -44 49 -42 51 2
3 23 -5 46 -17 25 -13 41 -17 38 -9 -2 6 -35 28 -73 48 -86 45 -176 115 -193
150 -11 24 -12 25 -8 2 l5 -23 -25 23 c-25 24 -31 41 -13 37 6 -2 13 2 15 7 2
6 -9 10 -26 10 -16 0 -30 -1 -30 -3 0 -2 12 -18 26 -37 23 -31 24 -33 5 -28
-12 3 -21 11 -21 19 0 8 -6 11 -15 8 -9 -4 -33 5 -55 20 -26 17 -52 26 -77 25
-37 -1 -38 -1 -10 -11z m140 -72 c-3 -5 0 -6 8 -4 29 11 138 -44 139 -69 0
-17 -15 -16 -70 3 -123 41 -183 82 -161 108 10 12 18 11 51 -7 21 -12 36 -26
33 -31z m182 -86 c3 -5 2 -10 -4 -10 -5 0 -13 5 -16 10 -3 6 -2 10 4 10 5 0
13 -4 16 -10z"/>
<path d="M3730 3990 c0 -5 5 -10 11 -10 5 0 7 5 4 10 -3 6 -8 10 -11 10 -2 0
-4 -4 -4 -10z"/>
<path d="M100 3931 c0 -5 5 -13 10 -16 6 -3 10 -2 10 4 0 5 -4 13 -10 16 -5 3
-10 2 -10 -4z"/>
<path d="M3870 3930 c-8 -5 -11 -12 -7 -16 4 -4 13 -2 19 4 15 15 7 24 -12 12z"/>
<path d="M3910 3910 c0 -5 5 -10 10 -10 6 0 10 5 10 10 0 6 -4 10 -10 10 -5 0
-10 -4 -10 -10z"/>
<path d="M3520 3866 c0 -2 7 -7 16 -10 8 -3 12 -2 9 4 -6 10 -25 14 -25 6z"/>
<path d="M297 3816 c-3 -8 0 -17 8 -20 9 -3 13 2 12 15 -2 22 -13 25 -20 5z"/>
<path d="M3571 3823 c0 -6 -4 -20 -7 -30 -5 -14 -4 -15 5 -7 7 7 11 20 8 30
-3 11 -5 14 -6 7z"/>
<path d="M190 3789 c0 -18 -4 -21 -29 -16 -20 4 -31 2 -35 -8 -3 -9 0 -12 8
-9 7 3 30 -6 51 -20 40 -28 73 -36 40 -10 -11 8 -19 20 -17 25 1 6 -2 8 -8 4
-6 -4 -7 5 -4 25 4 16 4 30 0 30 -3 0 -6 -10 -6 -21z"/>
<path d="M0 3770 c0 -5 5 -10 10 -10 6 0 10 5 10 10 0 6 -4 10 -10 10 -5 0
-10 -4 -10 -10z"/>
<path d="M100 3750 c0 -5 -10 -10 -22 -10 -21 -1 -21 -2 -5 -11 23 -13 22 -29
-3 -29 -25 0 -26 -9 -3 -25 26 -19 44 -7 37 24 -3 15 -2 21 3 14 6 -8 13 -9
23 -2 12 7 11 10 -7 15 -13 4 -20 11 -16 20 3 8 2 14 -1 14 -3 0 -6 -4 -6 -10z"/>
<path d="M23 3734 c-7 -7 -9 -15 -5 -17 4 -3 13 1 19 9 7 7 9 15 5 17 -4 3
-13 -1 -19 -9z"/>
<path d="M340 3726 c0 -2 12 -11 26 -21 25 -16 25 -16 14 4 -9 17 -40 30 -40
17z"/>
<path d="M0 3696 c0 -2 7 -6 15 -10 8 -3 15 -1 15 4 0 6 -7 10 -15 10 -8 0
-15 -2 -15 -4z"/>
<path d="M120 3692 c0 -4 4 -13 9 -20 7 -11 9 -11 14 1 3 9 -1 18 -9 21 -8 3
-14 2 -14 -2z"/>
<path d="M3625 3690 c-3 -5 -2 -10 4 -10 5 0 13 5 16 10 3 6 2 10 -4 10 -5 0
-13 -4 -16 -10z"/>
<path d="M3780 3685 c0 -8 4 -15 10 -15 5 0 7 7 4 15 -4 8 -8 15 -10 15 -2 0
-4 -7 -4 -15z"/>
<path d="M3728 3663 c6 -2 18 -2 25 0 6 3 1 5 -13 5 -14 0 -19 -2 -12 -5z"/>
<path d="M146 3652 c-3 -6 -1 -14 5 -17 14 -9 20 -2 10 14 -6 8 -11 9 -15 3z"/>
<path d="M35 3637 c-11 -13 -8 -57 3 -57 4 0 7 16 8 35 0 19 0 35 0 35 -1 -1
-6 -6 -11 -13z"/>
<path d="M1 3591 c-1 -45 2 -52 15 -47 9 3 21 6 27 6 7 0 4 6 -5 13 -9 7 -21
29 -26 48 -10 33 -10 33 -11 -20z"/>
<path d="M3968 3633 c6 -2 18 -2 25 0 6 3 1 5 -13 5 -14 0 -19 -2 -12 -5z"/>
<path d="M83 3598 c-1 -13 -7 -24 -12 -26 -5 -2 -8 -9 -5 -17 3 -7 0 -16 -5
-20 -6 -3 -9 -11 -6 -16 8 -12 -22 -42 -35 -34 -5 3 -10 2 -10 -4 0 -6 16 -13
34 -17 31 -5 34 -8 23 -25 -10 -15 -14 -16 -27 -5 -18 16 -40 10 -40 -10 0 -8
6 -11 17 -7 15 5 16 3 6 -7 -10 -11 -10 -17 0 -29 10 -12 9 -14 -6 -8 -14 5
-17 0 -17 -33 0 -31 4 -40 18 -40 16 -1 16 -1 -1 -14 -14 -11 -17 -26 -16 -75
2 -50 4 -58 14 -44 11 14 13 13 19 -11 4 -15 4 -37 0 -49 -6 -19 -7 -19 -19 9
l-13 29 -1 -32 c-1 -17 4 -33 10 -35 9 -3 9 -9 0 -25 -6 -12 -11 -35 -11 -52
0 -24 5 -32 24 -37 28 -7 66 -54 43 -54 -7 0 -18 5 -25 12 -10 9 -16 8 -29 -5
-21 -21 -15 -27 31 -29 34 -1 35 -2 15 -16 -11 -8 -23 -12 -26 -8 -13 12 -33
-26 -33 -63 0 -28 7 -47 24 -66 14 -15 27 -22 30 -16 4 6 13 8 21 5 10 -4 12
0 8 15 -3 12 -9 21 -14 21 -5 0 -9 7 -9 15 0 9 9 15 24 15 13 0 26 5 28 12 2
6 10 8 16 4 17 -10 15 -26 -3 -26 -9 0 -15 -9 -15 -25 0 -14 5 -25 10 -25 6 0
10 7 10 16 0 11 6 15 20 11 17 -4 18 -2 9 15 -11 20 -10 20 11 5 12 -8 29 -13
36 -10 20 7 17 -4 -6 -27 -27 -27 -25 -37 8 -54 l27 -15 -37 -15 c-49 -21 -55
-20 -82 8 -12 14 -36 27 -52 30 -16 3 -36 14 -45 25 -16 20 -17 20 -17 -7 0
-30 12 -42 45 -42 12 0 29 -9 37 -21 8 -12 19 -18 25 -14 6 3 11 2 11 -3 0 -6
-11 -13 -25 -16 -38 -10 -95 -47 -95 -62 0 -8 5 -14 10 -14 6 0 10 4 10 9 0 9
81 33 88 26 3 -2 1 -16 -2 -30 -6 -22 -11 -26 -39 -23 -35 3 -72 -24 -64 -47
6 -15 67 -47 67 -35 0 14 41 -2 53 -21 15 -24 24 -24 30 -1 4 16 5 16 6 0 0
-10 6 -18 12 -18 5 0 7 -5 3 -12 -4 -7 -3 -8 5 -4 6 4 9 12 6 17 -4 5 -2 9 2
9 5 0 14 -9 21 -20 7 -11 18 -20 26 -20 8 0 16 -7 20 -15 3 -8 10 -15 16 -15
5 0 21 -10 35 -22 17 -15 22 -25 15 -33 -19 -23 -2 -41 35 -37 19 2 35 8 35
14 0 5 5 6 10 3 12 -7 50 3 50 13 0 4 -14 7 -32 7 -26 0 -33 5 -38 25 -5 21
-12 25 -48 28 -23 2 -42 7 -42 13 0 5 5 9 10 9 6 0 10 4 10 10 0 5 -3 9 -7 8
-5 0 -17 2 -28 6 -11 5 -27 10 -35 13 -26 9 8 16 45 9 23 -5 40 -16 50 -34 12
-20 14 -21 10 -6 -4 18 -1 21 17 19 13 -1 29 -3 35 -4 7 0 19 -13 27 -28 20
-38 62 -84 69 -77 3 4 -7 20 -23 38 -28 29 -37 46 -25 46 15 0 58 -36 71 -59
14 -25 14 -25 8 -2 -4 15 -2 21 4 17 6 -3 12 -3 15 1 2 5 3 3 1 -3 -3 -13 36
-38 44 -28 4 4 1 9 -5 11 -21 7 -15 25 6 18 11 -3 21 0 24 9 8 20 -3 28 -20
15 -10 -9 -13 -7 -11 11 2 13 -2 25 -8 27 -7 2 -11 -4 -10 -14 0 -10 -7 -18
-19 -20 -15 -1 -16 -1 -2 3 12 4 15 12 11 30 -6 23 -5 24 21 14 34 -13 55 -13
35 0 -10 6 -11 10 -2 10 6 0 12 5 12 11 0 5 -4 8 -9 5 -12 -8 -43 29 -34 39 5
4 0 5 -10 2 -10 -4 -23 -7 -29 -7 -6 0 -8 -6 -5 -14 10 -24 -18 -39 -37 -21
-9 9 -21 13 -28 9 -9 -5 -8 -2 1 10 10 12 16 14 21 5 4 -6 14 -9 21 -7 9 3 7
10 -9 26 -12 12 -17 22 -10 22 6 0 1 11 -12 25 -23 24 -47 35 -35 15 3 -5 -4
-10 -16 -10 -18 0 -19 2 -9 15 8 10 9 15 2 15 -6 0 -16 -9 -22 -20 -6 -11 -16
-17 -25 -14 -8 4 -15 1 -15 -5 0 -11 19 -15 52 -12 12 2 16 -3 12 -13 -4 -11
0 -16 12 -16 13 0 15 -3 7 -11 -7 -7 -29 -9 -62 -4 -48 6 -53 10 -87 61 -20
30 -40 54 -45 54 -5 0 -9 6 -9 14 0 7 -7 19 -15 26 -11 9 -15 9 -15 1 0 -9 -5
-9 -20 -1 -19 10 -19 12 -4 27 13 14 17 14 25 2 5 -8 9 -9 9 -4 0 10 46 35 65
35 15 0 83 -59 68 -60 -7 0 -13 -7 -13 -16 0 -14 3 -14 15 -4 12 10 18 10 30
0 15 -12 39 -5 30 10 -3 5 3 13 12 19 16 9 16 12 3 21 -21 14 -30 12 -36 -5
-4 -8 -11 -15 -16 -15 -6 0 -7 7 -4 16 4 11 2 15 -7 11 -7 -3 -24 3 -36 13
l-24 17 24 6 c32 8 45 7 42 -4 -2 -5 8 -9 20 -9 13 0 32 -9 42 -20 10 -12 24
-19 31 -16 7 3 14 1 16 -3 2 -5 14 -5 27 0 19 8 21 12 11 24 -7 8 -21 15 -31
15 -11 0 -19 4 -19 9 0 13 29 41 41 41 6 0 7 5 4 10 -3 6 -1 10 4 10 13 0 13
-3 5 -24 -3 -9 -10 -13 -15 -10 -5 3 -9 0 -9 -6 0 -6 11 -15 25 -20 14 -5 25
-15 25 -21 0 -7 3 -10 6 -7 3 4 -1 19 -8 35 -7 15 -13 39 -13 53 0 14 -8 31
-17 38 -24 18 -23 27 6 40 19 8 24 18 22 38 -3 31 -25 47 -46 34 -12 -8 -10
-10 8 -10 24 0 27 -7 11 -30 -9 -13 -10 -12 -5 3 3 9 1 17 -4 17 -6 0 -10 -8
-11 -17 0 -15 -1 -15 -8 2 -11 29 -7 90 7 113 11 17 42 4 35 -14 -3 -8 1 -14
11 -14 22 0 20 -17 -1 -23 -17 -4 -17 -5 0 -6 11 -1 15 -6 11 -13 -4 -6 -3 -8
4 -4 6 3 21 -4 33 -16 12 -13 19 -17 15 -10 -4 7 -1 12 7 12 8 0 20 6 26 14
10 12 8 14 -11 9 -22 -4 -22 -4 -4 11 11 9 15 16 8 16 -17 0 -66 49 -57 58 4
4 10 1 12 -5 3 -7 9 -13 14 -13 6 0 21 -12 35 -27 23 -24 25 -25 42 -10 10 10
23 17 28 17 5 0 0 -7 -10 -15 -19 -15 -19 -15 2 -15 16 0 22 6 22 21 0 19 2
20 17 8 11 -10 14 -10 9 -1 -4 7 -2 12 8 12 20 0 69 -19 76 -30 3 -5 12 -5 20
0 19 12 2 30 -29 33 -21 1 -31 27 -10 27 5 0 7 5 4 10 -4 6 -11 8 -16 5 -5 -4
-9 1 -9 9 0 9 -11 18 -23 22 -19 4 -23 11 -20 32 l3 27 -13 -27 c-12 -27 -13
-27 -29 -9 -15 18 -15 19 3 24 11 3 19 14 19 27 0 15 -5 20 -14 17 -8 -3 -17
1 -20 9 -3 8 -10 14 -16 14 -6 0 -9 -4 -5 -9 3 -5 1 -12 -5 -16 -5 -3 -10 1
-10 9 0 10 -8 16 -22 15 -13 0 -17 -3 -10 -6 15 -6 15 -21 -1 -37 -18 -19 -38
-8 -32 17 5 19 1 22 -26 24 -17 1 -37 10 -43 18 -7 10 -18 13 -29 9 -18 -7
-23 -24 -7 -24 6 0 10 5 10 12 0 6 3 9 6 5 3 -3 2 -13 -3 -22 -8 -13 -13 -11
-38 17 -17 18 -29 36 -28 39 1 4 -9 6 -22 5 -31 -1 -32 -14 -3 -25 20 -7 17
-9 -17 -15 -40 -8 -40 -8 -19 -25 l22 -17 -27 -12 c-15 -6 -36 -10 -47 -8 -17
3 -20 0 -17 -17 3 -16 -3 -26 -24 -35 -49 -24 -53 -24 -53 -10 0 7 -19 20 -42
28 -30 11 -42 21 -43 36 -1 19 1 20 17 11 10 -7 18 -17 18 -24 0 -15 9 -16 29
-4 7 5 10 14 7 20 -4 6 -2 11 3 11 6 0 11 -5 11 -11 0 -5 5 -7 10 -4 6 4 8 11
5 16 -4 5 -2 9 3 9 22 0 18 25 -4 26 -13 1 -21 -2 -18 -7 5 -8 -3 -11 -22 -8
-4 0 -10 -5 -15 -12 -6 -10 -10 -7 -17 11 -5 14 -6 26 -1 28 5 2 1 15 -8 28
-15 24 -17 24 -32 7 -10 -10 -20 -26 -24 -35 -3 -10 -13 -18 -22 -18 -8 0 -15
-5 -15 -11 0 -5 -5 -7 -10 -4 -6 4 -1 14 12 25 l23 19 -25 2 c-18 1 -20 3 -7
6 12 3 16 11 12 23 -3 11 -1 18 7 17 33 -1 48 4 48 17 0 9 -7 12 -20 9 -11 -3
-20 0 -20 6 0 6 -7 11 -15 11 -8 0 -15 5 -15 11 0 6 7 8 15 5 52 -21 51 -21
36 -3 -12 15 -9 21 12 18 9 -1 10 23 1 32 -4 3 -15 2 -25 -4 -13 -7 -19 -6
-19 1 0 6 -4 9 -9 6 -5 -3 -21 0 -36 8 -26 14 -26 14 -6 28 12 8 18 18 14 21
-3 4 0 7 8 7 11 0 11 2 -1 10 -13 8 -13 10 1 10 17 0 43 46 34 60 -3 4 4 6 15
3 11 -3 20 -10 20 -17 0 -6 9 2 19 17 l18 29 42 -38 c42 -39 52 -58 26 -48
-11 4 -13 2 -9 -9 6 -17 -29 -33 -48 -21 -8 5 -9 2 -5 -10 4 -10 7 -20 7 -22
0 -2 12 -4 26 -4 14 0 23 4 19 9 -8 14 28 31 53 24 12 -3 22 -6 22 -7 0 -1 -4
-15 -9 -32 -9 -31 -8 -32 18 -24 14 4 25 12 24 19 -5 19 16 12 27 -9 14 -26
27 -25 26 2 -1 17 5 23 27 25 15 1 27 -2 27 -8 0 -5 -8 -9 -17 -9 -15 0 -14
-2 3 -14 18 -14 18 -15 1 -22 -10 -3 -35 -4 -56 -1 -40 5 -71 -6 -71 -26 0 -7
4 -6 10 3 8 13 13 13 39 -3 33 -19 45 -22 36 -7 -3 6 1 7 9 4 9 -3 16 -12 16
-19 0 -8 10 -11 28 -8 15 2 34 5 42 7 21 3 23 21 2 22 -42 2 -43 3 -30 23 11
18 12 18 42 1 22 -13 37 -16 54 -9 30 11 28 23 -3 15 -14 -4 -25 -2 -25 4 0 5
5 10 11 10 5 0 7 5 4 11 -4 6 1 16 11 24 11 7 19 19 19 27 0 7 10 13 23 12 28
-1 28 12 1 26 -33 18 -64 9 -62 -18 2 -15 -3 -22 -15 -22 -11 0 -18 8 -18 20
0 11 4 20 8 20 4 0 8 5 8 10 0 6 -7 10 -15 10 -8 0 -15 -7 -15 -15 0 -8 -5
-15 -12 -15 -6 0 -8 3 -5 6 3 4 2 16 -4 26 -8 14 -14 17 -21 10 -6 -6 -16 -8
-23 -5 -8 2 -22 0 -33 -6 -22 -12 -55 -5 -47 10 3 4 12 6 20 2 8 -3 15 0 15 6
0 7 -21 11 -57 10 -62 -2 -113 15 -113 38 0 8 -4 12 -9 9 -15 -10 -43 6 -37
20 3 7 1 16 -4 19 -6 4 -10 -1 -10 -9 0 -9 -7 -16 -15 -16 -8 0 -12 -6 -9 -14
4 -11 0 -13 -15 -9 -16 4 -19 9 -11 18 6 7 8 19 4 28 -4 12 -1 14 15 10 24 -6
25 -3 9 32 -14 31 -23 32 -25 3z m327 -173 c0 -9 -6 -12 -16 -8 -13 5 -13 7
-2 14 17 11 18 11 18 -6z m30 -5 c0 -5 -4 -10 -10 -10 -5 0 -10 5 -10 10 0 6
5 10 10 10 6 0 10 -4 10 -10z m30 -70 c0 -11 -4 -20 -10 -20 -5 0 -10 9 -10
20 0 11 5 20 10 20 6 0 10 -9 10 -20z m-425 -110 c-3 -5 -11 -10 -16 -10 -6 0
-7 5 -4 10 3 6 11 10 16 10 6 0 7 -4 4 -10z m75 -114 c0 -2 -7 -7 -16 -10 -8
-3 -12 -2 -9 4 6 10 25 14 25 6z m414 -20 c-6 -15 -24 -23 -24 -11 0 8 24 34
28 30 1 -1 0 -10 -4 -19z m-34 -6 c0 -5 -2 -10 -4 -10 -3 0 -8 5 -11 10 -3 6
-1 10 4 10 6 0 11 -4 11 -10z m191 -19 c-8 -15 -5 -24 16 -45 15 -15 32 -25
39 -22 20 8 25 -6 6 -20 -10 -8 -12 -13 -4 -14 6 0 12 -5 12 -12 0 -9 -3 -9
-11 -1 -6 6 -19 9 -28 6 -13 -4 -13 -3 -2 5 18 13 5 32 -22 32 -16 0 -18 -3
-9 -12 17 -17 15 -28 -4 -28 -8 0 -13 4 -9 9 3 5 0 13 -6 17 -8 5 -8 9 1 14
17 10 2 53 -16 46 -7 -3 -16 -1 -19 4 -4 6 4 10 15 10 16 0 20 5 16 15 -4 10
1 15 15 15 16 0 18 -3 10 -19z m-541 -21 c18 -16 38 -30 42 -30 5 0 7 -4 3 -9
-3 -6 1 -13 8 -18 7 -4 19 -23 26 -41 8 -20 20 -32 30 -31 38 3 52 -2 63 -26
10 -22 13 -24 28 -10 20 19 61 9 53 -13 -4 -10 -2 -13 5 -8 7 4 12 1 12 -8 0
-8 -6 -13 -13 -10 -21 7 -15 -57 6 -70 13 -8 20 -8 26 3 6 10 10 10 16 1 4 -7
0 -19 -9 -28 -10 -11 -16 -12 -16 -4 0 9 -12 10 -42 6 -30 -5 -39 -4 -34 4 4
7 16 12 27 12 12 0 17 4 13 11 -3 6 -15 9 -25 6 -14 -4 -19 0 -19 15 0 10 -5
16 -10 13 -7 -4 -7 -13 0 -26 9 -16 7 -19 -9 -19 -10 0 -21 -7 -25 -15 -3 -8
-1 -15 4 -15 6 0 10 5 10 11 0 8 5 8 15 -1 18 -15 20 -34 3 -25 -7 4 -2 -3 12
-14 l25 -22 -30 6 c-16 3 -24 2 -17 -1 6 -3 12 -10 12 -15 0 -6 -4 -8 -9 -4
-5 3 -12 2 -15 -3 -7 -11 -76 -2 -76 10 0 6 6 8 13 5 17 -6 52 19 38 28 -6 3
-11 1 -11 -4 0 -6 -7 -11 -16 -11 -11 0 -15 6 -11 20 3 12 -1 24 -11 30 -10 5
-12 10 -7 10 6 0 11 10 12 22 1 11 7 24 14 28 8 6 8 9 0 14 -6 4 -11 3 -11 -2
0 -6 -11 -13 -24 -16 -13 -3 -30 -8 -38 -11 -10 -4 -13 3 -12 22 1 21 6 28 22
28 11 0 24 3 28 7 4 4 13 3 19 -2 9 -7 12 -1 12 23 0 17 -2 24 -4 15 -4 -14
-8 -16 -24 -8 -10 6 -19 18 -19 26 0 9 -6 14 -13 11 -15 -6 -63 30 -53 40 4 4
11 1 16 -7 11 -18 12 -16 15 31 2 34 1 35 -34 36 -33 1 -34 0 -12 -8 23 -9 23
-11 8 -26 -12 -13 -19 -14 -30 -4 -8 6 -21 9 -30 6 -11 -5 -16 3 -19 29 -3 26
0 36 10 36 7 0 10 -4 7 -10 -3 -5 1 -10 10 -10 12 0 15 5 11 16 -6 17 0 34 13
34 4 0 23 -13 41 -30z m270 20 c0 -5 -4 -10 -10 -10 -5 0 -10 5 -10 10 0 6 5
10 10 10 6 0 10 -4 10 -10z m194 -36 c25 -9 19 -22 -9 -20 -14 0 -25 7 -25 14
0 13 10 15 34 6z m-67 -25 c-11 -7 -23 -7 -28 -2 -5 5 3 9 19 11 24 1 25 0 9
-9z m-507 -33 c0 -3 -4 -8 -10 -11 -5 -3 -10 -1 -10 4 0 6 5 11 10 11 6 0 10
-2 10 -4z m750 -21 c0 -8 -2 -15 -4 -15 -2 0 -6 7 -10 15 -3 8 -1 15 4 15 6 0
10 -7 10 -15z m-133 -1 c-3 -3 -12 -4 -19 -1 -8 3 -5 6 6 6 11 1 17 -2 13 -5z
m-182 -14 c3 -5 1 -10 -4 -10 -6 0 -11 5 -11 10 0 6 2 10 4 10 3 0 8 -4 11
-10z m-55 -6 c0 -7 -27 -34 -35 -34 -3 0 -4 4 0 9 3 5 -3 12 -12 14 -10 2 -8
3 5 2 12 -1 22 2 22 6 0 5 5 9 10 9 6 0 10 -3 10 -6z m13 -29 c-3 -9 -8 -14
-10 -11 -3 3 -2 9 2 15 9 16 15 13 8 -4z m-242 -16 c11 -21 0 -38 -23 -39 -5
0 -8 -7 -8 -15 0 -8 -9 -15 -20 -15 -26 0 -25 10 3 54 26 41 32 43 48 15z
m279 -51 c0 -6 -6 -5 -15 2 -8 7 -15 14 -15 16 0 2 7 1 15 -2 8 -4 15 -11 15
-16z m-50 -22 c0 -3 -4 -8 -10 -11 -5 -3 -10 -1 -10 4 0 6 5 11 10 11 6 0 10
-2 10 -4z m-364 -93 c-9 -9 -38 26 -31 38 5 6 13 3 22 -11 8 -12 13 -24 9 -27z
m454 16 c0 -18 -18 -9 -23 12 -4 16 -3 18 9 8 8 -6 14 -15 14 -20z m-111 -19
c-14 -9 -29 -4 -29 10 0 12 34 18 39 7 2 -5 -3 -13 -10 -17z m-166 -1 c-6 -6
-9 -18 -6 -25 6 -16 -13 -19 -22 -4 -10 17 3 40 22 40 12 0 14 -3 6 -11z m219
-57 c-19 -6 -44 6 -37 18 4 7 14 6 28 -2 14 -7 17 -13 9 -16z m-312 -62 c0 -5
-8 -10 -17 -10 -15 0 -16 2 -3 10 19 12 20 12 20 0z m55 -62 c-6 -16 -54 -22
-56 -7 -1 5 -2 13 -3 18 0 5 -4 13 -8 17 -4 4 0 13 10 20 14 11 20 9 40 -10
13 -13 20 -29 17 -38z m36 -27 c1 -9 1 -20 0 -25 -1 -5 4 -16 12 -25 8 -9 17
-24 20 -34 6 -15 3 -17 -16 -11 -12 4 -23 11 -25 15 -2 5 -12 9 -23 9 -14 0
-19 7 -19 29 0 17 6 31 16 35 8 3 13 10 10 14 -3 5 1 9 9 9 8 0 16 -7 16 -16z
m-115 -6 c-11 -8 -29 -14 -40 -14 -20 1 -21 1 -1 6 11 3 24 9 30 14 5 5 14 9
20 9 5 0 1 -7 -9 -15z m165 -17 c7 -12 12 -31 13 -43 1 -17 9 -21 48 -23 28
-2 48 -8 52 -17 8 -22 -7 -26 -38 -9 -16 7 -36 14 -46 14 -22 0 -44 25 -35 40
3 5 1 10 -4 10 -6 0 -11 11 -11 25 0 31 6 32 21 3z m-228 -8 c3 -13 0 -20 -8
-20 -17 0 -28 17 -20 30 10 16 22 12 28 -10z m94 -12 c-3 -8 -6 -5 -6 6 -1 11
2 17 5 13 3 -3 4 -12 1 -19z m-53 -3 c-7 -16 -24 -21 -24 -6 0 8 7 13 27 20 1
1 0 -6 -3 -14z m399 -80 c12 -9 16 -15 8 -15 -11 0 -11 -3 -1 -15 10 -12 10
-15 -1 -15 -20 0 -89 48 -89 62 0 14 54 3 83 -17z"/>
<path d="M320 2860 c0 -5 5 -10 10 -10 6 0 10 5 10 10 0 6 -4 10 -10 10 -5 0
-10 -4 -10 -10z"/>
<path d="M214 2835 c-10 -8 -14 -15 -8 -15 6 0 17 7 24 15 16 19 9 19 -16 0z"/>
<path d="M160 2889 c0 -5 5 -7 10 -4 6 3 10 8 10 11 0 2 -4 4 -10 4 -5 0 -10
-5 -10 -11z"/>
<path d="M130 2850 c0 -5 5 -10 11 -10 5 0 7 5 4 10 -3 6 -8 10 -11 10 -2 0
-4 -4 -4 -10z"/>
<path d="M120 3615 c0 -18 19 -40 26 -32 4 4 0 15 -9 24 -9 10 -17 13 -17 8z"/>
<path d="M150 3610 c0 -5 5 -10 10 -10 6 0 10 5 10 10 0 6 -4 10 -10 10 -5 0
-10 -4 -10 -10z"/>
<path d="M3120 3610 c0 -5 5 -10 11 -10 5 0 7 5 4 10 -3 6 -8 10 -11 10 -2 0
-4 -4 -4 -10z"/>
<path d="M203 3593 c-20 -7 -15 -23 7 -23 11 0 20 4 20 9 0 13 -12 19 -27 14z"/>
<path d="M318 3593 c7 -3 16 -2 19 1 4 3 -2 6 -13 5 -11 0 -14 -3 -6 -6z"/>
<path d="M250 3578 c0 -9 5 -20 10 -23 13 -8 13 5 0 25 -8 13 -10 13 -10 -2z"/>
<path d="M370 3576 c0 -2 7 -6 15 -10 8 -3 15 -1 15 4 0 6 -7 10 -15 10 -8 0
-15 -2 -15 -4z"/>
<path d="M2840 3565 c0 -8 4 -15 10 -15 5 0 7 7 4 15 -4 8 -8 15 -10 15 -2 0
-4 -7 -4 -15z"/>
<path d="M3158 3563 c7 -3 16 -2 19 1 4 3 -2 6 -13 5 -11 0 -14 -3 -6 -6z"/>
<path d="M160 3546 c0 -9 5 -16 10 -16 6 0 10 4 10 9 0 6 -4 13 -10 16 -5 3
-10 -1 -10 -9z"/>
<path d="M515 3550 c3 -5 8 -10 11 -10 2 0 4 5 4 10 0 6 -5 10 -11 10 -5 0 -7
-4 -4 -10z"/>
<path d="M227 3539 c6 -6 9 -19 6 -28 -4 -13 -2 -13 7 2 12 19 6 37 -13 37 -8
0 -8 -3 0 -11z"/>
<path d="M365 3540 c3 -5 13 -10 21 -10 8 0 14 5 14 10 0 6 -9 10 -21 10 -11
0 -17 -4 -14 -10z"/>
<path d="M2756 3534 c-9 -23 -2 -28 13 -10 7 8 8 17 3 20 -6 3 -13 -1 -16 -10z"/>
<path d="M315 3530 c-4 -6 3 -10 14 -10 25 0 27 6 6 13 -8 4 -17 2 -20 -3z"/>
<path d="M276 3517 c3 -10 9 -15 12 -12 3 3 0 11 -7 18 -10 9 -11 8 -5 -6z"/>
<path d="M490 3519 c0 -5 5 -7 10 -4 6 3 10 8 10 11 0 2 -4 4 -10 4 -5 0 -10
-5 -10 -11z"/>
<path d="M3048 3520 c-7 -20 19 -57 51 -75 l26 -14 -25 0 c-14 0 -43 6 -65 14
-47 17 -85 19 -85 4 0 -6 8 -8 18 -5 10 4 36 0 58 -8 31 -11 35 -15 22 -21
-10 -4 -15 -11 -12 -16 3 -5 16 -2 30 7 15 11 34 14 52 10 15 -3 72 -13 127
-20 125 -18 366 -76 510 -122 148 -48 149 -49 100 -70 -42 -17 -285 -69 -370
-79 -54 -6 -76 -10 -145 -24 l-45 -10 55 3 c85 5 202 25 455 78 28 6 67 17 89
26 21 9 53 15 72 14 54 -4 39 15 -18 23 -29 4 -59 11 -68 15 -8 4 -76 26 -150
48 -120 37 -206 58 -430 107 -86 18 -205 51 -219 59 -6 4 -14 21 -19 39 -5 20
-10 27 -14 17z m151 -106 c10 -9 -35 -3 -49 6 -11 8 -7 9 15 4 17 -4 32 -8 34
-10z"/>
<path d="M362 3508 c6 -18 28 -21 28 -4 0 9 -7 16 -16 16 -9 0 -14 -5 -12 -12z"/>
<path d="M460 3499 c0 -5 5 -7 10 -4 6 3 10 8 10 11 0 2 -4 4 -10 4 -5 0 -10
-5 -10 -11z"/>
<path d="M2850 3491 c24 -13 77 -24 65 -13 -5 5 -26 12 -45 16 -21 3 -29 2
-20 -3z"/>
<path d="M545 3480 c-4 -6 -12 -7 -18 -3 -7 4 -6 0 2 -10 18 -23 36 -21 38 3
2 21 -11 27 -22 10z"/>
<path d="M612 3470 c0 -14 2 -19 5 -12 2 6 2 18 0 25 -3 6 -5 1 -5 -13z"/>
<path d="M375 3470 c3 -5 10 -10 16 -10 5 0 9 5 9 10 0 6 -7 10 -16 10 -8 0
-12 -4 -9 -10z"/>
<path d="M147 3463 c-12 -11 -8 -23 8 -23 8 0 15 7 15 15 0 16 -12 20 -23 8z"/>
<path d="M643 3440 c1 -21 6 -24 31 -14 13 5 13 8 1 20 -20 20 -34 17 -32 -6z"/>
<path d="M756 3440 c-15 -5 -16 -9 -7 -14 7 -5 18 -3 24 3 14 14 6 20 -17 11z"/>
<path d="M180 3409 c7 -11 14 -18 17 -15 8 8 -5 36 -17 36 -7 0 -7 -6 0 -21z"/>
<path d="M960 3420 c0 -6 7 -10 15 -10 8 0 15 2 15 4 0 2 -7 6 -15 10 -8 3
-15 1 -15 -4z"/>
<path d="M1090 3420 c0 -5 -7 -10 -15 -10 -8 0 -15 -7 -15 -15 0 -11 5 -12 26
-5 14 6 31 7 37 3 7 -4 8 0 4 11 -4 10 -7 20 -7 22 0 2 -7 4 -15 4 -8 0 -15
-4 -15 -10z"/>
<path d="M2998 3413 c7 -3 16 -2 19 1 4 3 -2 6 -13 5 -11 0 -14 -3 -6 -6z"/>
<path d="M105 3383 c8 -15 12 -30 9 -35 -3 -4 4 -8 15 -8 28 0 26 20 -3 48
-31 29 -38 28 -21 -5z"/>
<path d="M860 3401 c0 -6 4 -13 10 -16 6 -3 7 1 4 9 -7 18 -14 21 -14 7z"/>
<path d="M2915 3400 c3 -5 8 -10 11 -10 2 0 4 5 4 10 0 6 -5 10 -11 10 -5 0
-7 -4 -4 -10z"/>
<path d="M640 3384 c0 -9 5 -12 13 -8 9 5 9 3 -1 -7 -11 -12 -14 -12 -21 0 -5
7 -14 10 -20 6 -17 -10 8 -38 27 -30 9 3 12 0 9 -8 -3 -7 2 -22 10 -32 13 -16
14 -17 10 -3 -8 22 9 33 17 12 7 -20 57 -15 64 6 4 13 3 13 -11 2 -14 -12 -17
-9 -23 23 -6 35 -7 35 -26 18 -11 -9 -19 -13 -18 -8 2 6 2 18 1 28 -1 21 -31
23 -31 1z"/>
<path d="M778 3383 c7 -3 16 -2 19 1 4 3 -2 6 -13 5 -11 0 -14 -3 -6 -6z"/>
<path d="M725 3370 c3 -5 8 -10 11 -10 2 0 4 5 4 10 0 6 -5 10 -11 10 -5 0 -7
-4 -4 -10z"/>
<path d="M3020 3365 c0 -8 7 -15 15 -15 9 0 12 6 9 15 -4 8 -10 15 -15 15 -5
0 -9 -7 -9 -15z"/>
<path d="M778 3338 c-5 -29 25 -69 40 -53 4 4 1 10 -5 12 -18 6 -16 21 2 25
11 2 8 8 -10 24 l-23 21 -4 -29z"/>
<path d="M2928 3353 c7 -3 16 -2 19 1 4 3 -2 6 -13 5 -11 0 -14 -3 -6 -6z"/>
<path d="M187 3334 c-4 -4 -7 -14 -7 -23 0 -11 3 -12 11 -4 6 6 10 16 7 23 -2
6 -7 8 -11 4z"/>
<path d="M842 3328 c6 -18 28 -21 28 -4 0 9 -7 16 -16 16 -9 0 -14 -5 -12 -12z"/>
<path d="M230 3323 c0 -7 -7 -13 -16 -13 -11 0 -13 -6 -9 -20 5 -15 2 -18 -13
-15 -13 2 -22 -6 -30 -27 -9 -24 -8 -27 2 -19 9 8 20 7 39 -2 32 -14 34 -23 7
-30 -13 -3 -18 -10 -14 -21 3 -9 1 -16 -5 -16 -6 0 -11 -4 -11 -10 0 -5 7 -10
15 -10 8 0 15 9 15 20 0 21 15 27 25 10 10 -16 27 0 22 21 -7 27 8 32 29 12
17 -17 18 -17 11 0 -7 18 1 21 27 11 9 -3 16 -12 16 -20 0 -8 5 -14 10 -14 14
0 12 37 -2 43 -10 4 -10 8 1 15 11 8 10 12 -5 20 -13 7 -21 7 -29 -3 -13 -17
-55 -2 -55 20 0 9 5 13 10 10 6 -3 10 -1 10 4 0 6 -5 11 -11 11 -7 0 -18 8
-25 18 -8 10 -13 12 -14 5z m14 -50 c-5 -5 -12 -12 -16 -18 -4 -6 -8 -2 -8 8
0 9 7 17 17 17 9 0 12 -3 7 -7z"/>
<path d="M570 3296 c-4 -12 -5 -27 -2 -34 7 -19 27 -9 27 14 1 10 4 24 7 30 4
6 0 11 -8 11 -9 0 -19 -10 -24 -21z"/>
<path d="M915 3308 c-4 -10 -15 -18 -25 -18 -13 0 -17 -5 -13 -20 3 -11 8 -20
12 -20 12 1 42 51 38 63 -3 8 -7 6 -12 -5z"/>
<path d="M610 3290 c0 -5 5 -10 11 -10 5 0 7 5 4 10 -3 6 -8 10 -11 10 -2 0
-4 -4 -4 -10z"/>
<path d="M1027 3261 c-6 -17 -15 -31 -19 -31 -4 0 -8 -7 -8 -15 0 -21 11 -18
37 8 26 28 33 58 15 64 -8 3 -18 -8 -25 -26z"/>
<path d="M526 3270 c-15 -5 -16 -9 -7 -14 7 -5 18 -3 24 3 14 14 6 20 -17 11z"/>
<path d="M665 3270 c-3 -5 -1 -10 4 -10 6 0 11 5 11 10 0 6 -2 10 -4 10 -3 0
-8 -4 -11 -10z"/>
<path d="M800 3259 c0 -5 5 -7 10 -4 6 3 10 8 10 11 0 2 -4 4 -10 4 -5 0 -10
-5 -10 -11z"/>
<path d="M455 3240 c-4 -6 3 -10 14 -10 11 0 23 -4 26 -10 3 -5 1 -10 -5 -10
-6 0 -8 -4 -5 -10 3 -5 16 -9 28 -8 12 0 28 -1 36 -3 7 -2 16 2 18 9 3 6 0 12
-7 12 -6 0 -8 5 -5 10 3 6 1 10 -4 10 -6 0 -11 -4 -11 -10 0 -5 -7 -10 -15
-10 -8 0 -15 4 -15 8 0 14 -48 33 -55 22z"/>
<path d="M615 3240 c3 -5 8 -10 11 -10 2 0 4 5 4 10 0 6 -5 10 -11 10 -5 0 -7
-4 -4 -10z"/>
<path d="M905 3230 c3 -5 13 -10 21 -10 8 0 12 5 9 10 -3 6 -13 10 -21 10 -8
0 -12 -4 -9 -10z"/>
<path d="M370 3220 c0 -5 5 -10 10 -10 6 0 10 5 10 10 0 6 -4 10 -10 10 -5 0
-10 -4 -10 -10z"/>
<path d="M732 3209 c2 -7 19 -19 36 -26 28 -12 33 -11 38 2 8 21 -5 33 -16 16
-7 -12 -13 -12 -35 3 -18 12 -26 14 -23 5z"/>
<path d="M910 3205 c0 -3 9 -15 19 -26 22 -23 41 -8 21 16 -12 14 -40 21 -40
10z"/>
<path d="M2180 3204 c-152 -26 -177 -34 -211 -61 -12 -10 -23 -11 -43 -4 -25
10 -39 -2 -13 -12 12 -5 -61 -12 -98 -9 -17 2 -17 0 -5 -8 13 -9 13 -11 0 -20
-8 -5 -23 -10 -32 -10 -11 0 -18 -8 -18 -20 0 -12 -12 -26 -32 -36 -46 -24
-80 -52 -68 -56 6 -2 -15 -28 -45 -58 -55 -55 -131 -156 -171 -228 -11 -20
-26 -48 -34 -62 -8 -14 -15 -32 -16 -40 0 -8 -11 -41 -23 -72 -27 -69 -36
-272 -14 -324 13 -34 21 -235 10 -269 -4 -11 -19 -25 -34 -31 -24 -9 -32 -24
-56 -95 -31 -96 -33 -117 -12 -185 8 -27 15 -71 15 -97 0 -26 6 -63 14 -81 15
-37 64 -76 94 -76 18 0 22 -9 27 -57 4 -32 13 -89 21 -126 18 -87 18 -146 -1
-288 -21 -156 -31 -211 -71 -379 -58 -242 -46 -216 -105 -224 -28 -4 -61 -14
-74 -22 -19 -13 -26 -12 -60 2 -31 13 -46 14 -75 5 -19 -6 -45 -8 -57 -5 -18
5 -94 -12 -149 -33 -18 -7 -15 0 111 212 84 141 296 512 384 673 52 94 62 119
59 153 -3 45 50 129 -472 -749 -235 -395 -245 -411 -263 -412 -7 0 -13 -3 -14
-7 -4 -43 -10 -67 -20 -79 -10 -12 114 -14 914 -14 606 0 928 3 932 10 3 6 3
16 -1 22 -12 19 -12 48 -1 48 5 0 4 6 -2 13 -6 8 -8 17 -4 21 4 4 1 11 -7 16
-12 7 -10 11 9 18 22 8 22 9 6 16 -17 6 -17 7 1 22 10 9 14 13 7 10 -6 -4 -14
-2 -18 4 -3 5 1 10 11 10 12 0 15 6 12 25 -3 14 -1 25 4 25 6 0 8 6 5 14 -3 8
-3 17 0 20 11 11 11 71 0 79 -7 5 -1 5 13 1 25 -7 25 -7 6 15 -14 15 -15 21
-6 21 9 0 7 5 -6 15 -17 13 -17 14 -2 15 11 0 16 6 13 20 -2 11 1 20 7 20 6 0
8 9 5 20 -3 11 0 20 6 20 6 0 7 3 4 7 -4 3 -2 13 5 20 9 11 9 17 -3 24 -10 6
-11 9 -1 9 7 0 11 4 7 9 -3 5 -1 12 5 16 12 7 4 25 -11 25 -6 0 -7 -5 -3 -11
4 -8 0 -9 -15 -4 -12 4 -27 1 -36 -7 -31 -28 -41 -35 -70 -45 -17 -6 -38 -14
-48 -18 -17 -7 -18 -6 -6 14 8 12 19 19 25 17 13 -5 37 41 29 55 -4 5 1 9 10
9 10 0 14 -5 9 -12 -5 -10 -3 -10 7 0 12 11 12 14 -1 22 -9 6 -10 10 -3 10 6
0 15 -5 18 -10 4 -6 11 -8 16 -4 6 4 1 17 -13 32 -13 14 -18 22 -11 18 6 -3
14 -2 18 4 4 7 12 7 25 0 25 -13 30 -13 30 4 0 19 -26 40 -33 26 -3 -6 -4 -5
-3 2 1 7 14 14 29 16 19 2 24 7 20 19 -5 12 -2 15 10 10 22 -8 22 9 0 23 -17
10 -17 10 1 8 10 -2 21 3 24 11 2 8 0 11 -5 8 -5 -3 -10 0 -10 8 0 8 4 15 9
15 5 0 7 4 3 9 -5 10 14 62 26 71 10 7 49 126 49 149 0 14 5 19 15 15 8 -4 15
-1 15 5 0 6 -5 11 -10 11 -6 0 -4 13 5 30 10 19 14 45 11 70 -4 31 -2 40 10
40 12 0 14 7 9 31 -6 24 -4 30 5 24 8 -5 11 -4 6 3 -3 6 -1 23 5 38 8 23 12
26 20 14 8 -11 9 -9 4 8 -4 14 0 33 10 49 9 14 12 22 5 18 -9 -5 -10 -2 -6 13
4 11 2 23 -4 27 -12 8 -13 25 -1 25 5 0 11 -9 14 -20 7 -26 23 -26 30 1 4 16
3 18 -8 9 -11 -9 -12 -7 -8 10 3 13 11 19 20 16 19 -8 22 5 26 108 3 71 2 86
-8 73 -17 -23 -28 -21 -15 2 5 11 10 22 10 25 0 11 -28 6 -32 -5 -2 -7 -28
-14 -58 -16 -32 -2 -60 -10 -66 -18 -12 -17 -39 -21 -29 -5 4 6 -5 10 -20 10
-14 0 -24 -4 -20 -9 3 -5 1 -12 -5 -16 -6 -4 -10 12 -10 43 l0 49 33 -3 32 -3
-33 11 c-42 14 -36 32 11 36 20 2 37 8 37 13 0 6 8 8 19 4 28 -8 48 3 47 28
-1 16 -8 23 -28 25 -16 2 -28 7 -28 12 0 27 22 58 44 64 14 3 26 11 26 16 0 6
18 10 41 10 41 0 41 0 37 34 -2 19 0 32 4 30 11 -7 10 10 -1 21 -4 6 -17 42
-27 80 -9 39 -24 80 -32 92 -8 13 -12 30 -8 38 3 8 1 15 -4 15 -6 0 -10 5 -10
11 0 7 -14 34 -30 61 l-30 48 25 -6 c22 -5 25 -3 26 22 0 16 3 23 6 16 2 -6 9
-10 13 -7 5 3 14 -4 20 -16 10 -18 9 -20 -7 -15 -14 4 -19 1 -19 -14 0 -22 12
-27 18 -8 12 34 128 -118 128 -167 0 -8 5 -15 11 -15 5 0 8 -4 4 -10 -3 -5 -1
-17 4 -27 5 -10 13 -27 17 -38 7 -17 9 -14 12 15 2 19 -1 36 -7 38 -6 2 -11
21 -11 42 0 29 4 37 16 36 9 0 19 5 22 13 3 8 0 11 -7 7 -6 -4 -11 -2 -11 4 0
6 6 13 14 16 10 4 14 19 13 46 -2 22 3 47 10 57 25 33 14 68 -21 62 -4 -1 -5
10 -2 24 9 35 -3 75 -23 75 -27 0 -63 30 -56 47 3 10 -3 22 -15 30 l-21 15 20
15 c12 8 19 19 15 24 -3 5 0 17 7 25 10 12 9 13 -3 9 -11 -5 -14 1 -10 24 2
17 8 29 12 26 4 -2 5 8 3 23 -4 21 -2 24 6 12 6 -8 11 -11 11 -6 0 5 -8 18
-17 29 -14 16 -15 19 -3 15 9 -3 22 4 32 16 15 21 15 23 -9 42 -13 10 -38 30
-54 44 -16 14 -35 30 -42 36 -7 6 -23 17 -35 23 -13 7 -20 16 -17 20 2 5 -10
15 -28 22 -17 7 -50 28 -71 46 -22 18 -44 33 -50 33 -6 0 3 -9 19 -20 17 -11
26 -20 22 -20 -9 0 -68 38 -77 50 -8 10 -61 37 -110 55 -44 17 -205 29 -260
19z m691 -341 c13 -15 12 -15 -8 -4 -24 12 -29 21 -14 21 5 0 15 -7 22 -17z
m-151 -78 c19 -22 8 -25 -12 -3 -10 10 -14 18 -9 18 5 0 14 -7 21 -15z m117
-37 c-3 -8 -6 -5 -6 6 -1 11 2 17 5 13 3 -3 4 -12 1 -19z m-157 -8 c0 -5 -4
-10 -10 -10 -5 0 -10 5 -10 10 0 6 5 10 10 10 6 0 10 -4 10 -10z m150 -27 c0
-7 -4 -13 -10 -13 -5 0 -10 12 -10 28 0 21 2 24 10 12 5 -8 10 -21 10 -27z
m-322 -195 l53 -11 -37 -13 c-46 -16 -58 -33 -38 -55 12 -13 13 -19 3 -25 -9
-5 -7 -10 7 -16 14 -6 8 -7 -18 -5 -21 2 -39 -1 -41 -6 -1 -5 -21 -11 -42 -13
-22 -3 -55 -9 -73 -15 -38 -12 -54 -3 -78 43 -16 30 -48 38 -58 13 -3 -8 -2
-15 3 -15 4 0 11 -30 14 -67 5 -54 4 -68 -10 -78 -9 -7 -14 -20 -11 -32 3 -11
2 -41 -2 -67 -5 -33 -3 -49 7 -57 7 -6 13 -22 13 -35 0 -13 8 -27 17 -33 15
-8 16 -12 4 -34 -8 -14 -11 -32 -8 -40 8 -22 -51 -87 -97 -108 -35 -15 -42
-16 -60 -3 -41 28 -116 11 -116 -26 0 -11 -9 -29 -21 -41 -20 -20 -21 -20 -34
-2 -13 17 -14 17 -15 1 0 -10 -3 -18 -7 -18 -9 0 -43 -57 -43 -72 0 -6 7 -8
15 -4 8 3 21 -2 30 -10 14 -15 40 -11 31 5 -3 4 8 5 24 3 36 -5 107 35 91 51
-6 6 -11 17 -11 23 0 17 40 28 53 15 8 -8 8 -11 -2 -11 -7 0 -9 -4 -6 -10 11
-17 43 -11 59 11 14 21 14 21 30 -9 9 -17 16 -40 16 -50 0 -11 9 -30 19 -44
32 -40 14 -53 -68 -51 -39 2 -73 -2 -76 -7 -3 -6 -1 -10 4 -10 6 0 11 -4 11
-9 0 -6 -17 -9 -38 -8 -28 1 -43 -5 -63 -25 -15 -15 -24 -29 -21 -32 3 -3 -2
-6 -11 -6 -9 0 -22 -9 -29 -20 -7 -11 -16 -20 -20 -20 -4 0 -19 -5 -35 -12
-15 -6 -35 -13 -43 -13 -8 -1 -22 -3 -30 -4 -9 0 -33 -24 -54 -52 -28 -36 -45
-49 -60 -47 -26 4 -31 27 -12 53 14 19 15 19 35 1 21 -19 21 -19 21 0 0 11 5
25 12 32 15 15 6 15 -24 1 -16 -7 -31 -7 -48 0 -16 6 -19 10 -9 10 9 1 19 11
22 24 2 12 8 30 12 40 9 22 -17 24 -35 2 -9 -11 -16 -12 -26 -4 -7 6 -13 14
-12 17 5 18 -15 52 -31 52 -9 0 -25 6 -35 13 -16 12 -16 14 -2 26 13 11 14 17
4 29 -8 9 -12 44 -12 90 1 65 4 78 22 93 16 12 18 19 10 23 -10 5 -10 7 0 12
15 7 16 54 1 54 -5 0 -7 4 -4 10 3 5 2 26 -4 45 -9 35 -9 35 23 35 18 0 38 -6
45 -12 11 -10 14 -10 18 0 7 18 21 15 28 -8 9 -29 24 -25 37 11 6 17 13 26 17
21 9 -14 81 -19 89 -6 10 16 72 5 66 -11 -3 -7 -13 -11 -23 -8 -11 3 -21 -2
-24 -12 -5 -12 -11 -14 -26 -5 -27 14 -60 -16 -39 -36 11 -11 24 -8 76 17 35
16 80 31 100 33 52 5 72 15 72 36 0 10 7 23 15 30 9 7 13 15 11 18 -3 2 1 11
9 19 8 7 23 43 34 79 19 63 19 94 0 94 -5 0 0 9 11 20 39 39 39 120 0 120 -27
0 -27 36 0 50 11 6 20 7 20 3 0 -4 5 -2 12 5 7 7 19 12 28 12 8 0 28 7 43 15
16 8 44 13 63 10 18 -2 36 0 39 4 6 11 -46 21 -72 15 -12 -3 -24 -1 -27 4 -9
14 273 14 342 0z m245 -28 c7 -27 -6 -33 -37 -16 l-26 13 23 11 c31 15 34 14
40 -8z m-966 -168 c-17 -3 -17 -5 -2 -22 9 -9 15 -23 13 -31 -2 -7 10 -16 27
-20 29 -6 29 -7 -10 -10 -22 -1 -53 -3 -70 -4 -16 -1 -54 -9 -83 -19 -29 -10
-56 -15 -59 -12 -4 3 -1 6 5 6 7 0 12 5 12 10 0 6 -10 8 -23 5 -15 -4 -28 -1
-36 8 -9 12 -5 18 24 36 20 11 42 21 49 21 8 0 19 7 26 15 8 9 22 12 41 8 16
-3 29 -1 29 4 0 5 17 9 38 9 20 1 29 -1 19 -4z m793 -91 c0 -13 -28 -22 -35
-11 -3 4 1 11 7 13 20 8 28 8 28 -2z m-782 -23 c-3 -7 -20 -14 -39 -16 l-34
-2 25 15 c31 18 53 19 48 3z m-88 -22 c0 -2 -9 -6 -20 -9 -11 -3 -20 -1 -20 4
0 5 9 9 20 9 11 0 20 -2 20 -4z m1060 -162 c0 -8 -5 -12 -10 -9 -6 4 -8 11 -5
16 9 14 15 11 15 -7z m-217 -101 c-7 -2 -21 -2 -30 0 -10 3 -4 5 12 5 17 0 24
-2 18 -5z m57 -43 c0 -5 -7 -10 -15 -10 -8 0 -15 5 -15 10 0 6 7 10 15 10 8 0
15 -4 15 -10z m-63 -176 c-3 -3 -12 -4 -19 -1 -8 3 -5 6 6 6 11 1 17 -2 13 -5z
m-691 -418 c16 -17 17 -25 4 -46 -8 -13 -11 -12 -24 5 -30 39 -13 74 20 41z
m651 -508 c-3 -8 -6 -5 -6 6 -1 11 2 17 5 13 3 -3 4 -12 1 -19z m-181 -267 c0
-16 -3 -17 -14 -9 -12 10 -7 19 13 28 1 0 1 -9 1 -19z"/>
<path d="M1745 1871 c-3 -5 -1 -12 5 -16 5 -3 10 1 10 9 0 18 -6 21 -15 7z"/>
<path d="M1835 1841 c-3 -5 -1 -12 5 -16 5 -3 10 1 10 9 0 18 -6 21 -15 7z"/>
<path d="M1663 1829 c-14 -5 -23 -17 -23 -29 0 -25 12 -26 34 -1 23 26 17 41
-11 30z"/>
<path d="M1825 1561 c-3 -5 -1 -12 5 -16 5 -3 10 1 10 9 0 18 -6 21 -15 7z"/>
<path d="M606 3175 c4 -8 11 -15 16 -15 6 0 5 6 -2 15 -7 8 -14 15 -16 15 -2
0 -1 -7 2 -15z"/>
<path d="M670 3171 c0 -5 5 -13 10 -16 6 -3 10 -2 10 4 0 5 -4 13 -10 16 -5 3
-10 2 -10 -4z"/>
<path d="M719 3160 c-13 -10 -21 -21 -18 -25 4 -3 14 1 22 10 19 18 28 19 26
3 -4 -31 3 -42 12 -20 14 37 -10 55 -42 32z"/>
<path d="M1000 3170 c0 -5 7 -10 15 -10 8 0 15 5 15 10 0 6 -7 10 -15 10 -8 0
-15 -4 -15 -10z"/>
<path d="M790 3149 c0 -5 5 -7 10 -4 6 3 10 8 10 11 0 2 -4 4 -10 4 -5 0 -10
-5 -10 -11z"/>
<path d="M3210 3151 c0 -10 19 -25 25 -20 1 2 -3 10 -11 17 -8 7 -14 8 -14 3z"/>
<path d="M920 3141 c0 -5 7 -12 16 -15 14 -5 15 -4 4 9 -14 17 -20 19 -20 6z"/>
<path d="M1070 3110 c0 -5 7 -7 15 -4 8 4 15 8 15 10 0 2 -7 4 -15 4 -8 0 -15
-4 -15 -10z"/>
<path d="M775 3099 c-11 -17 1 -21 15 -4 8 9 8 15 2 15 -6 0 -14 -5 -17 -11z"/>
<path d="M1021 3079 c8 -16 8 -23 -1 -29 -8 -5 -8 -10 -2 -14 5 -3 15 1 21 8
9 11 9 19 -1 35 -17 28 -32 27 -17 0z"/>
<path d="M891 3074 c-12 -14 -11 -16 4 -12 10 1 20 9 23 16 5 17 -10 15 -27
-4z"/>
<path d="M241 3071 c-10 -6 -10 -10 -1 -16 13 -8 24 -1 19 14 -3 6 -10 7 -18
2z"/>
<path d="M981 3064 c-10 -12 -10 -19 -2 -27 8 -8 11 -7 11 6 0 9 5 17 10 17 6
0 10 5 10 10 0 14 -13 12 -29 -6z"/>
<path d="M930 3056 c0 -9 5 -16 10 -16 6 0 10 4 10 9 0 6 -4 13 -10 16 -5 3
-10 -1 -10 -9z"/>
<path d="M893 3043 c-18 -6 -16 -23 1 -23 17 0 30 16 19 23 -5 2 -14 2 -20 0z"/>
<path d="M3920 3030 c0 -5 7 -10 16 -10 8 0 12 5 9 10 -3 6 -10 10 -16 10 -5
0 -9 -4 -9 -10z"/>
<path d="M1087 3013 c7 -18 33 -17 33 1 0 8 -8 14 -19 13 -11 0 -17 -6 -14
-14z"/>
<path d="M992 3009 c2 -7 10 -15 17 -17 8 -3 12 1 9 9 -2 7 -10 15 -17 17 -8
3 -12 -1 -9 -9z"/>
<path d="M1041 3008 c0 -9 -4 -25 -7 -35 -5 -17 -5 -17 6 0 6 10 9 25 7 35 -4
15 -5 15 -6 0z"/>
<path d="M873 2963 c9 -9 20 -13 24 -9 4 4 1 11 -7 16 -25 16 -35 11 -17 -7z"/>
<path d="M924 2962 c-6 -4 -13 -22 -16 -40 -4 -29 -1 -35 19 -43 32 -12 33
-12 33 9 0 14 -2 15 -10 2 -8 -13 -10 -12 -10 3 0 9 -4 17 -10 17 -14 0 -12
38 3 43 6 2 10 7 7 10 -3 3 -10 3 -16 -1z"/>
<path d="M965 2930 c3 -5 11 -10 16 -10 6 0 7 5 4 10 -3 6 -11 10 -16 10 -6 0
-7 -4 -4 -10z"/>
<path d="M858 2903 c7 -3 16 -2 19 1 4 3 -2 6 -13 5 -11 0 -14 -3 -6 -6z"/>
<path d="M993 2903 c-18 -7 -16 -23 2 -23 8 0 15 6 15 13 0 8 3 8 8 2 4 -6 20
-12 36 -13 24 -2 27 0 16 13 -12 14 -52 19 -77 8z"/>
<path d="M3016 2902 c-2 -4 4 -13 14 -19 15 -10 17 -9 13 8 -5 20 -18 25 -27
11z"/>
<path d="M3700 2901 c0 -5 7 -15 17 -22 15 -13 15 -12 4 9 -12 23 -21 28 -21
13z"/>
<path d="M1125 2890 c-3 -5 -1 -10 4 -10 6 0 11 5 11 10 0 6 -2 10 -4 10 -3 0
-8 -4 -11 -10z"/>
<path d="M715 2880 c3 -5 8 -10 11 -10 2 0 4 5 4 10 0 6 -5 10 -11 10 -5 0 -7
-4 -4 -10z"/>
<path d="M3415 2880 c-3 -6 1 -7 9 -4 18 7 21 14 7 14 -6 0 -13 -4 -16 -10z"/>
<path d="M983 2868 c-33 -9 -42 -21 -23 -33 6 -3 10 -11 10 -17 0 -6 -11 -2
-23 11 -20 18 -26 19 -35 8 -20 -23 -19 -61 1 -65 10 -2 17 3 17 12 0 17 15
22 24 7 3 -5 17 -11 30 -13 21 -4 23 -2 17 16 -5 12 -3 33 5 51 7 17 13 24 14
18 0 -15 20 -18 20 -4 0 15 -23 18 -57 9z m-43 -49 c0 -6 -4 -7 -10 -4 -5 3
-10 11 -10 16 0 6 5 7 10 4 6 -3 10 -11 10 -16z"/>
<path d="M3360 2860 c0 -5 5 -10 11 -10 5 0 7 5 4 10 -3 6 -8 10 -11 10 -2 0
-4 -4 -4 -10z"/>
<path d="M3080 2839 c72 -57 249 -152 335 -179 22 -7 54 -18 70 -25 79 -34
189 -75 201 -75 23 0 16 -16 -12 -29 -15 -6 -24 -14 -21 -18 4 -3 18 2 31 11
14 9 33 16 42 16 24 0 151 -29 217 -50 39 -12 57 -15 57 -7 0 7 -27 20 -60 30
-47 13 -73 30 -125 78 -36 34 -65 69 -66 78 0 9 -3 11 -5 4 -3 -7 -12 -9 -21
-6 -10 4 -14 2 -10 -5 4 -6 -1 -13 -10 -15 -10 -3 -5 -5 12 -6 21 -1 47 -16
83 -47 28 -25 52 -49 52 -54 0 -10 -193 39 -257 65 -24 9 -41 21 -38 25 3 4
-8 10 -23 13 -66 12 -91 20 -162 48 -90 36 -212 101 -261 140 -20 16 -41 29
-45 29 -5 0 2 -10 16 -21z"/>
<path d="M3470 2858 c0 -7 67 -77 98 -103 15 -12 20 -14 16 -4 -7 15 -114 116
-114 107z"/>
<path d="M703 2815 c-15 -17 -3 -27 17 -15 10 6 11 12 5 19 -6 6 -14 4 -22 -4z"/>
<path d="M1040 2820 c0 -5 4 -10 9 -10 6 0 13 5 16 10 3 6 -1 10 -9 10 -9 0
-16 -4 -16 -10z"/>
<path d="M3747 2809 c4 -13 8 -18 11 -10 2 7 -1 18 -6 23 -8 8 -9 4 -5 -13z"/>
<path d="M658 2813 c7 -3 16 -2 19 1 4 3 -2 6 -13 5 -11 0 -14 -3 -6 -6z"/>
<path d="M554 2794 c3 -9 6 -17 6 -18 0 -2 11 -1 25 2 20 3 23 7 14 18 -16 20
-53 18 -45 -2z"/>
<path d="M848 2786 c-21 -16 -24 -40 -4 -33 16 6 40 -16 29 -27 -4 -4 0 -4 8
-1 17 6 15 55 -3 55 -5 0 -6 5 -3 10 9 14 -7 12 -27 -4z"/>
<path d="M640 2764 c0 -11 7 -29 15 -40 8 -10 15 -34 15 -53 0 -29 2 -32 15
-21 9 7 12 16 8 19 -4 3 -10 15 -11 26 -2 11 -8 22 -13 23 -5 2 -9 11 -9 20 0
10 -5 24 -10 32 -8 12 -10 11 -10 -6z"/>
<path d="M740 2760 c0 -5 5 -10 10 -10 6 0 10 5 10 10 0 6 -4 10 -10 10 -5 0
-10 -4 -10 -10z"/>
<path d="M940 2756 c0 -21 21 -31 30 -15 5 7 6 17 4 21 -9 14 -34 9 -34 -6z"/>
<path d="M990 2730 c0 -5 7 -10 16 -10 8 0 12 5 9 10 -3 6 -10 10 -16 10 -5 0
-9 -4 -9 -10z"/>
<path d="M3620 2720 c14 -11 34 -26 45 -32 18 -10 19 -10 6 6 -8 10 -28 24
-45 32 l-31 15 25 -21z"/>
<path d="M563 2705 c-10 -10 -9 -16 2 -25 12 -10 16 -9 21 5 9 22 -8 37 -23
20z"/>
<path d="M3751 2704 c0 -11 3 -14 6 -6 3 7 2 16 -1 19 -3 4 -6 -2 -5 -13z"/>
<path d="M157 2703 c-4 -3 -7 -11 -7 -17 0 -6 5 -5 12 2 6 6 9 14 7 17 -3 3
-9 2 -12 -2z"/>
<path d="M890 2700 c0 -6 -11 -16 -25 -22 -19 -8 -22 -14 -13 -20 19 -11 28
-10 28 5 0 10 13 13 45 12 35 -1 42 2 33 12 -5 7 -14 11 -18 8 -5 -3 -11 -1
-15 5 -8 13 -35 13 -35 0z"/>
<path d="M970 2701 c0 -6 4 -13 10 -16 6 -3 7 1 4 9 -7 18 -14 21 -14 7z"/>
<path d="M750 2681 c0 -5 7 -16 15 -24 8 -8 11 -19 7 -23 -4 -5 -1 -4 7 2 17
16 10 48 -12 52 -9 2 -17 -1 -17 -7z"/>
<path d="M910 2650 c0 -5 7 -10 15 -10 8 0 15 5 15 10 0 6 -7 10 -15 10 -8 0
-15 -4 -15 -10z"/>
<path d="M2855 2650 c-3 -5 -1 -10 4 -10 6 0 11 5 11 10 0 6 -2 10 -4 10 -3 0
-8 -4 -11 -10z"/>
<path d="M1020 2640 c0 -5 5 -10 10 -10 6 0 10 5 10 10 0 6 -4 10 -10 10 -5 0
-10 -4 -10 -10z"/>
<path d="M839 2613 c-13 -15 -12 -15 9 -4 23 12 28 21 13 21 -5 0 -15 -7 -22
-17z"/>
<path d="M306 2604 c-3 -9 -4 -20 0 -25 3 -5 0 -9 -7 -9 -7 0 -10 -2 -7 -5 3
-3 13 -3 22 1 12 5 14 10 6 19 -8 9 -7 14 2 17 8 3 9 6 1 11 -6 4 -14 0 -17
-9z"/>
<path d="M875 2610 c-3 -5 -1 -10 4 -10 6 0 11 5 11 10 0 6 -2 10 -4 10 -3 0
-8 -4 -11 -10z"/>
<path d="M520 2593 c0 -12 5 -25 11 -28 13 -9 15 -6 23 25 6 19 5 22 -3 10
-10 -13 -12 -13 -21 0 -8 12 -10 11 -10 -7z"/>
<path d="M680 2583 c0 -25 4 -33 18 -32 10 0 12 3 4 6 -6 2 -10 9 -7 14 4 5 1
17 -4 26 -9 15 -10 13 -11 -14z"/>
<path d="M445 2590 c-3 -6 1 -10 9 -10 19 0 21 -16 4 -24 -7 -3 -3 -3 10 0 23
6 32 -11 10 -19 -7 -2 -10 -8 -6 -12 10 -11 28 4 28 24 0 22 -46 56 -55 41z"/>
<path d="M787 2576 c-4 -10 -1 -13 8 -9 8 3 12 9 9 14 -7 12 -11 11 -17 -5z"/>
<path d="M843 2575 c-3 -9 -3 -18 -1 -21 3 -3 8 4 11 16 6 23 -1 27 -10 5z"/>
<path d="M390 2550 c0 -5 4 -10 9 -10 6 0 13 5 16 10 3 6 -1 10 -9 10 -9 0
-16 -4 -16 -10z"/>
<path d="M568 2548 c9 -9 15 -9 24 0 9 9 7 12 -12 12 -19 0 -21 -3 -12 -12z"/>
<path d="M810 2545 c-7 -9 -8 -15 -2 -15 5 0 12 7 16 15 3 8 4 15 2 15 -2 0
-9 -7 -16 -15z"/>
<path d="M668 2540 c6 -8 12 -22 12 -32 0 -10 4 -18 9 -18 14 0 1 38 -18 52
-13 10 -14 10 -3 -2z"/>
<path d="M857 2544 c-3 -4 1 -13 9 -21 17 -18 29 -11 21 12 -7 16 -19 20 -30
9z"/>
<path d="M639 2533 c-1 -4 -1 -11 0 -15 2 -12 -17 -10 -24 2 -3 6 -16 9 -28 9
-20 -1 -20 -2 -2 -6 11 -3 24 -9 30 -14 14 -14 45 -11 45 5 0 16 -19 33 -21
19z"/>
<path d="M817 2502 c3 -7 9 -10 12 -5 3 4 10 11 15 15 4 4 -1 6 -12 5 -12 -1
-18 -6 -15 -15z"/>
<path d="M3265 2511 c-6 -11 9 -23 19 -14 9 9 7 23 -3 23 -6 0 -12 -4 -16 -9z"/>
<path d="M557 2490 c6 -21 23 -28 23 -9 0 7 10 5 25 -5 21 -14 24 -14 19 -1
-4 8 -12 15 -20 15 -8 0 -14 5 -14 10 0 6 -9 10 -19 10 -14 0 -18 -5 -14 -20z"/>
<path d="M3505 2432 c-168 -101 -212 -129 -220 -142 -4 -7 15 4 42 23 27 19
85 54 128 77 44 24 96 54 115 67 19 13 43 23 52 23 10 0 18 7 18 15 0 8 -1 15
-2 15 -2 0 -61 -35 -133 -78z"/>
<path d="M725 2470 c3 -5 8 -10 11 -10 2 0 4 5 4 10 0 6 -5 10 -11 10 -5 0 -7
-4 -4 -10z"/>
<path d="M756 2467 c3 -10 9 -15 12 -12 3 3 0 11 -7 18 -10 9 -11 8 -5 -6z"/>
<path d="M875 2431 c6 -11 45 -10 45 1 0 4 -12 8 -26 8 -14 0 -23 -4 -19 -9z"/>
<path d="M3945 2430 c4 -6 11 -8 16 -5 14 9 11 15 -7 15 -8 0 -12 -5 -9 -10z"/>
<path d="M822 2419 c2 -7 10 -15 17 -17 8 -3 12 1 9 9 -2 7 -10 15 -17 17 -8
3 -12 -1 -9 -9z"/>
<path d="M3610 2422 c0 -12 19 -26 26 -19 2 2 -2 10 -11 17 -9 8 -15 8 -15 2z"/>
<path d="M93 2407 c-17 -9 -21 -18 -17 -37 l5 -25 -16 28 c-17 29 -30 34 -38
15 -4 -10 -8 -9 -16 2 -8 12 -11 7 -11 -23 0 -24 7 -46 20 -59 26 -28 26 -42
0 -35 -13 3 -20 0 -20 -9 0 -8 9 -14 20 -14 11 0 20 -5 20 -10 0 -6 8 -10 18
-8 11 2 17 -3 16 -14 -1 -10 2 -15 7 -13 4 3 16 -7 26 -22 10 -15 20 -30 23
-33 27 -23 38 -54 28 -82 -6 -16 -8 -32 -5 -35 3 -3 9 6 13 21 6 26 24 37 24
14 0 -6 7 -20 17 -30 9 -11 11 -18 5 -18 -7 0 -12 5 -12 11 0 6 -7 3 -16 -6
-12 -11 -13 -19 -5 -29 6 -7 7 -17 3 -21 -4 -5 -2 -5 5 -1 7 4 10 13 7 20 -3
8 3 12 16 11 21 -1 47 -36 82 -105 9 -19 17 -29 18 -22 0 7 -7 26 -15 43 -9
16 -13 35 -9 41 4 6 3 8 -3 5 -10 -6 -33 33 -33 57 0 7 -9 21 -20 31 -15 13
-17 21 -9 26 9 5 8 12 -4 24 -10 9 -17 30 -17 46 0 20 -5 29 -16 29 -12 0 -14
-4 -7 -12 12 -15 24 -58 16 -58 -10 0 -45 47 -64 86 -10 23 -26 44 -34 48 -8
3 -15 11 -15 17 0 7 -7 21 -17 31 -21 23 -12 23 15 -1 12 -10 19 -21 15 -25
-3 -3 -1 -6 6 -6 7 0 21 -10 31 -22 16 -21 17 -21 16 -3 -4 35 -18 55 -37 55
-10 0 -19 5 -19 11 0 7 7 8 18 4 9 -4 25 -7 35 -7 14 1 17 -4 12 -21 -6 -18
-3 -17 18 8 25 29 25 30 6 39 -10 5 -19 15 -19 23 0 7 -6 13 -14 13 -15 0 -30
27 -27 48 1 6 1 11 -1 11 -2 -1 -13 -6 -25 -12z m46 -74 c2 -2 -3 -3 -11 -3
-9 0 -19 7 -22 16 -6 15 -4 15 11 3 10 -7 20 -15 22 -16z"/>
<path d="M1017 2404 c-3 -4 -2 -16 4 -26 8 -15 8 -23 -1 -32 -8 -8 -16 -5 -30
14 -14 18 -20 21 -20 9 0 -21 49 -48 59 -31 4 6 17 13 29 15 12 2 28 9 35 16
10 11 6 12 -20 6 -18 -3 -34 -2 -38 4 -3 6 -1 11 5 11 6 0 8 5 5 10 -7 11 -19
13 -28 4z"/>
<path d="M630 2391 c0 -5 7 -11 14 -14 10 -4 13 -1 9 9 -6 15 -23 19 -23 5z"/>
<path d="M926 2388 c-5 -10 -12 -15 -17 -12 -5 3 -9 1 -9 -4 0 -6 7 -13 16
-16 11 -4 13 -13 8 -28 -7 -23 -7 -23 15 -4 12 11 17 22 12 25 -5 3 -11 17
-13 31 -4 21 -6 22 -12 8z"/>
<path d="M745 2370 c4 -6 10 -9 13 -6 3 3 12 0 20 -7 13 -10 14 -9 10 3 -2 8
-15 17 -27 18 -16 3 -21 0 -16 -8z"/>
<path d="M620 2355 c33 -19 50 -18 26 0 -11 8 -27 15 -35 15 -10 -1 -7 -6 9
-15z"/>
<path d="M678 2363 c7 -3 16 -2 19 1 4 3 -2 6 -13 5 -11 0 -14 -3 -6 -6z"/>
<path d="M1175 2360 c3 -5 10 -10 16 -10 5 0 9 5 9 10 0 6 -7 10 -16 10 -8 0
-12 -4 -9 -10z"/>
<path d="M175 2350 c3 -5 8 -10 11 -10 2 0 4 5 4 10 0 6 -5 10 -11 10 -5 0 -7
-4 -4 -10z"/>
<path d="M670 2340 c0 -5 -9 -10 -20 -10 -13 0 -18 -5 -14 -15 4 -10 0 -15
-12 -15 -16 0 -16 -2 -4 -10 8 -5 19 -5 25 0 6 5 17 5 25 0 8 -5 21 -5 32 1
12 6 24 6 36 0 9 -6 11 -11 5 -11 -7 0 -13 -4 -13 -10 0 -5 3 -9 8 -8 9 2 74
-12 86 -20 5 -3 1 -9 -10 -12 -10 -4 -25 -2 -33 4 -11 8 -13 8 -8 -1 13 -21
-4 -45 -30 -40 -22 4 -23 3 -8 -14 16 -16 15 -19 -9 -34 -20 -14 -29 -15 -40
-6 -9 7 -17 8 -20 3 -14 -22 55 -30 73 -8 18 21 70 26 81 7 6 -12 12 -13 20
-5 17 17 1 44 -26 44 -24 0 -23 1 13 37 l37 37 -25 6 c-16 4 -23 13 -22 25 2
25 -16 57 -28 50 -5 -4 -6 -13 0 -24 7 -13 5 -20 -10 -29 -18 -12 -19 -10 -13
15 4 22 3 25 -5 13 -9 -13 -11 -12 -11 4 0 17 -1 17 -25 2 -29 -19 -61 -21
-71 -4 -5 7 -2 9 7 6 15 -6 42 16 32 26 -10 9 -23 7 -23 -4z"/>
<path d="M832 2310 c-2 -30 1 -40 12 -40 8 0 21 -9 29 -20 12 -17 16 -18 20
-6 4 9 -1 17 -11 19 -14 4 -13 6 6 12 12 4 22 11 22 16 0 13 -14 11 -28 -3 -9
-9 -13 -7 -18 7 -5 11 -1 22 10 30 15 12 15 13 0 19 -31 12 -39 6 -42 -34z"/>
<path d="M3772 2315 c8 -9 228 -13 228 -5 0 3 -53 8 -117 9 -65 1 -115 -1
-111 -4z"/>
<path d="M1000 2289 c0 -5 5 -7 10 -4 6 3 10 8 10 11 0 2 -4 4 -10 4 -5 0 -10
-5 -10 -11z"/>
<path d="M655 2270 c3 -5 14 -10 23 -10 15 0 15 2 2 10 -20 13 -33 13 -25 0z"/>
<path d="M507 2263 c-10 -9 -9 -23 1 -23 5 0 9 7 9 15 0 17 -1 18 -10 8z"/>
<path d="M450 2240 c-6 -11 -15 -18 -21 -15 -5 4 -9 2 -9 -4 0 -15 16 -22 33
-15 10 3 13 12 9 22 -5 15 -4 15 11 3 9 -7 17 -9 17 -3 0 5 -6 15 -14 21 -12
10 -17 8 -26 -9z"/>
<path d="M560 2245 c0 -8 5 -15 10 -15 6 0 10 7 10 15 0 8 -4 15 -10 15 -5 0
-10 -7 -10 -15z"/>
<path d="M640 2245 c7 -8 17 -15 22 -15 6 0 5 7 -2 15 -7 8 -17 15 -22 15 -6
0 -5 -7 2 -15z"/>
<path d="M3745 2250 c-3 -5 -1 -10 4 -10 6 0 11 5 11 10 0 6 -2 10 -4 10 -3 0
-8 -4 -11 -10z"/>
<path d="M966 2214 c-8 -22 1 -31 16 -16 9 9 9 15 1 23 -7 7 -12 5 -17 -7z"/>
<path d="M230 2206 c0 -2 7 -9 15 -16 13 -11 14 -10 9 4 -5 14 -24 23 -24 12z"/>
<path d="M557 2189 c5 -17 3 -20 -8 -14 -8 5 -11 4 -6 0 15 -18 46 -11 56 12
8 18 8 23 -4 23 -9 0 -12 -6 -8 -17 6 -17 5 -17 -15 0 -20 19 -21 18 -15 -4z"/>
<path d="M10 2176 c7 -7 13 -7 20 0 6 6 3 10 -10 10 -13 0 -16 -4 -10 -10z"/>
<path d="M416 2175 c-9 -26 -7 -32 5 -12 6 10 9 21 6 23 -2 3 -7 -2 -11 -11z"/>
<path d="M500 2180 c0 -5 5 -10 11 -10 5 0 7 5 4 10 -3 6 -8 10 -11 10 -2 0
-4 -4 -4 -10z"/>
<path d="M1011 2174 c0 -11 3 -14 6 -6 3 7 2 16 -1 19 -3 4 -6 -2 -5 -13z"/>
<path d="M446 2156 c3 -9 11 -16 16 -16 13 0 5 23 -10 28 -7 2 -10 -2 -6 -12z"/>
<path d="M600 2166 c0 -2 7 -7 16 -10 8 -3 12 -2 9 4 -6 10 -25 14 -25 6z"/>
<path d="M2971 2144 c0 -11 3 -14 6 -6 3 7 2 16 -1 19 -3 4 -6 -2 -5 -13z"/>
<path d="M101 2117 c-13 -21 -12 -21 5 -5 10 10 16 20 13 22 -3 3 -11 -5 -18
-17z"/>
<path d="M550 2131 c0 -15 18 -23 25 -12 3 6 13 8 23 5 14 -5 15 -4 2 5 -19
13 -50 14 -50 2z"/>
<path d="M496 2121 c-3 -5 1 -11 9 -15 18 -6 20 -49 4 -78 -8 -15 -8 -19 0
-14 6 4 11 2 11 -3 0 -15 30 -13 59 3 19 11 21 14 7 19 -8 3 -23 -1 -31 -10
-13 -12 -19 -13 -28 -4 -9 10 -8 15 4 24 9 7 14 18 12 25 -3 6 2 12 11 12 9 0
16 -3 16 -7 1 -19 18 -33 33 -27 17 6 24 25 10 23 -21 -3 -33 3 -33 17 0 10
-6 14 -14 11 -8 -3 -23 3 -34 14 -24 21 -28 23 -36 10z"/>
<path d="M620 2121 c0 -5 5 -13 11 -16 6 -4 8 -14 4 -23 -3 -9 -3 -13 1 -9 4
4 16 -1 27 -10 11 -10 17 -12 13 -5 -4 7 -1 12 8 12 16 0 39 -33 31 -44 -3 -3
0 -2 6 3 17 14 6 33 -31 55 -19 11 -30 13 -25 6 5 -9 4 -11 -4 -6 -6 4 -10 15
-9 24 2 9 -5 18 -14 20 -10 2 -18 -1 -18 -7z"/>
<path d="M940 2116 c-28 -28 10 -51 39 -23 11 10 13 9 8 -5 -4 -11 -1 -18 7
-18 7 0 13 12 14 28 0 25 -3 29 -28 29 -16 0 -34 -5 -40 -11z"/>
<path d="M1036 2115 c4 -8 8 -15 10 -15 2 0 4 7 4 15 0 8 -4 15 -10 15 -5 0
-7 -7 -4 -15z"/>
<path d="M596 2095 c4 -8 8 -15 10 -15 2 0 4 7 4 15 0 8 -4 15 -10 15 -5 0 -7
-7 -4 -15z"/>
<path d="M2966 2094 c-8 -21 -8 -34 2 -34 4 0 8 11 8 25 2 29 -1 32 -10 9z"/>
<path d="M13 2093 c9 -2 25 -2 35 0 9 3 1 5 -18 5 -19 0 -27 -2 -17 -5z"/>
<path d="M115 2051 c-3 -5 -1 -12 5 -16 5 -3 10 1 10 9 0 18 -6 21 -15 7z"/>
<path d="M740 2040 c0 -4 9 -10 20 -13 11 -3 20 -2 20 3 0 4 -9 10 -20 13 -11
3 -20 2 -20 -3z"/>
<path d="M292 2017 c18 -19 38 -22 38 -7 0 6 -4 10 -9 10 -5 0 -18 3 -28 7
-17 6 -17 6 -1 -10z"/>
<path d="M430 2010 c0 -5 -9 -10 -21 -10 -11 0 -18 -4 -15 -9 8 -13 43 -2 50
15 3 8 1 14 -4 14 -6 0 -10 -4 -10 -10z"/>
<path d="M111 1996 c-21 -7 -30 -15 -24 -19 7 -4 14 -3 18 3 11 18 23 10 27
-20 4 -29 -6 -42 -15 -17 -3 9 -7 9 -20 -2 -32 -26 -15 -50 19 -28 7 4 14 0
18 -8 3 -8 1 -15 -5 -15 -6 0 -7 -4 -4 -10 10 -15 25 -12 25 6 0 11 6 14 23 9
l22 -7 -22 17 c-23 16 -31 45 -13 45 6 0 10 5 10 10 0 6 -7 10 -15 10 -18 0
-19 12 -3 28 15 15 3 14 -41 -2z"/>
<path d="M640 1990 c0 -5 5 -10 11 -10 5 0 7 5 4 10 -3 6 -8 10 -11 10 -2 0
-4 -4 -4 -10z"/>
<path d="M745 1990 c3 -5 8 -10 11 -10 2 0 4 5 4 10 0 6 -5 10 -11 10 -5 0 -7
-4 -4 -10z"/>
<path d="M340 1970 c0 -6 5 -10 11 -10 5 0 8 -4 4 -10 -3 -5 -13 -6 -23 -3
-15 6 -15 5 -3 -10 13 -16 14 -16 27 0 12 16 15 16 23 3 6 -8 13 -11 17 -8 3
4 0 13 -7 21 -19 18 -49 29 -49 17z"/>
<path d="M620 1960 c-9 -6 -10 -10 -3 -10 6 0 15 5 18 10 8 12 4 12 -15 0z"/>
<path d="M700 1954 c0 -13 18 -39 24 -34 2 3 -2 14 -10 24 -8 11 -14 16 -14
10z"/>
<path d="M9 1921 c-7 -17 -6 -27 3 -33 18 -11 28 -10 28 2 0 17 -5 25 -12 23
-5 -2 -8 1 -8 7 0 5 10 9 21 7 12 -1 24 4 26 10 3 9 -4 12 -22 11 -18 -2 -30
-10 -36 -27z"/>
<path d="M500 1940 c0 -5 5 -10 10 -10 6 0 10 5 10 10 0 6 -4 10 -10 10 -5 0
-10 -4 -10 -10z"/>
<path d="M432 1918 c-14 -14 -16 -28 -3 -28 5 0 11 9 14 20 6 23 5 24 -11 8z"/>
<path d="M780 1922 c0 -4 10 -13 23 -21 22 -14 22 -14 3 8 -20 22 -26 25 -26
13z"/>
<path d="M60 1880 c0 -5 -15 -12 -32 -16 -18 -4 -27 -9 -20 -11 10 -4 10 -8 1
-19 -7 -8 -9 -17 -5 -21 3 -3 6 -1 6 5 0 7 8 12 18 12 10 0 25 8 33 18 9 9 25
22 35 28 17 10 16 11 -8 11 -16 0 -28 -3 -28 -7z"/>
<path d="M235 1870 c-13 -14 -21 -17 -26 -9 -3 6 -6 -5 -5 -25 1 -37 1 -37 71
-19 34 9 5 -11 -33 -24 l-37 -11 49 3 c27 2 52 8 55 12 3 4 12 8 19 8 6 0 12
3 11 7 -4 31 -15 46 -42 58 -18 7 -35 15 -38 17 -3 2 -14 -6 -24 -17z m15 -40
c0 -5 -7 -10 -16 -10 -8 0 -12 5 -9 10 3 6 10 10 16 10 5 0 9 -4 9 -10z"/>
<path d="M93 1818 c-15 -24 -26 -52 -26 -63 1 -16 1 -17 -3 -2 -3 9 -10 15
-15 12 -5 -4 -9 -2 -9 4 0 5 5 13 10 16 6 3 10 11 10 18 0 8 -3 8 -12 -1 -7
-7 -20 -12 -30 -12 -10 0 -18 -5 -18 -11 0 -6 7 -9 15 -5 8 3 15 1 15 -4 0 -6
-7 -10 -15 -10 -22 0 -18 -38 5 -45 23 -7 27 -25 6 -25 -21 0 -31 -21 -15 -31
11 -6 11 -11 1 -21 -6 -6 -12 -17 -12 -23 0 -5 5 -3 10 5 8 13 13 12 32 -7 12
-13 17 -23 10 -23 -7 0 -12 -4 -12 -10 0 -5 6 -7 13 -4 8 3 20 -2 27 -11 11
-13 10 -19 -5 -35 -10 -11 -22 -17 -26 -14 -5 3 -9 0 -9 -5 0 -6 9 -11 21 -11
11 0 18 4 15 9 -3 5 1 14 9 21 12 10 18 10 30 0 9 -7 18 -10 22 -7 3 4 11 3
17 -3 7 -5 17 -5 26 0 12 8 10 10 -8 10 -12 0 -25 7 -28 15 -4 8 -10 15 -15
15 -6 0 -27 17 -48 38 -43 41 -54 92 -20 92 12 0 19 9 21 27 2 22 11 30 43 39
22 7 34 13 26 13 -10 1 -7 9 10 28 l24 27 -38 -27 c-39 -30 -69 -28 -45 1 24
31 38 62 28 62 -5 0 -22 -19 -37 -42z m-58 -78 c-3 -5 -11 -10 -16 -10 -6 0
-7 5 -4 10 3 6 11 10 16 10 6 0 7 -4 4 -10z"/>
<path d="M372 1851 c-11 -6 -9 -9 6 -13 15 -4 19 -2 15 8 -6 16 -4 16 -21 5z"/>
<path d="M70 1829 c0 -11 4 -18 10 -14 5 3 7 12 3 20 -7 21 -13 19 -13 -6z"/>
<path d="M795 1810 c-25 -17 -26 -19 -7 -17 12 0 24 8 27 15 4 12 8 12 22 1
14 -12 16 -12 12 0 -8 22 -21 23 -54 1z"/>
<path d="M437 1790 c-3 -11 -1 -20 4 -20 5 0 9 9 9 20 0 11 -2 20 -4 20 -2 0
-6 -9 -9 -20z"/>
<path d="M2702 1783 c-9 -4 -10 -8 -2 -18 19 -23 -6 -26 -29 -4 -12 12 -25 18
-29 14 -3 -3 -1 -10 6 -14 7 -4 12 -14 10 -21 -5 -23 61 -19 68 3 4 11 12 16
23 12 12 -3 17 1 18 15 1 16 -4 20 -25 19 -15 0 -33 -3 -40 -6z"/>
<path d="M3870 1771 c0 -5 5 -13 10 -16 6 -3 10 -2 10 4 0 5 -4 13 -10 16 -5
3 -10 2 -10 -4z"/>
<path d="M403 1750 c-11 -16 -10 -18 2 -14 8 4 15 12 15 20 0 19 -3 18 -17 -6z"/>
<path d="M3850 1740 c0 -5 7 -10 16 -10 8 0 12 5 9 10 -3 6 -10 10 -16 10 -5
0 -9 -4 -9 -10z"/>
<path d="M115 1730 c27 -12 43 -12 25 0 -8 5 -22 9 -30 9 -10 0 -8 -3 5 -9z"/>
<path d="M210 1701 c0 -36 7 -41 43 -34 32 6 35 22 7 46 -31 26 -50 22 -50
-12z"/>
<path d="M390 1715 c-1 -30 -16 -35 -53 -20 -20 8 -37 13 -37 11 0 -16 21 -56
29 -56 6 0 8 6 5 13 -3 10 3 13 24 9 33 -4 56 16 42 38 -6 8 -10 11 -10 5z"/>
<path d="M3970 1705 c0 -8 -4 -15 -10 -15 -5 0 -10 -6 -10 -13 0 -15 -35 -16
-47 -2 -5 4 -2 5 6 0 10 -5 12 -4 7 3 -5 9 -13 9 -27 2 -22 -12 -17 -30 9 -30
15 -1 15 -2 -1 -14 -12 -10 -15 -16 -7 -21 6 -4 9 -13 6 -21 -3 -7 -1 -16 4
-19 15 -10 12 -25 -6 -25 -8 0 -12 5 -9 10 3 6 -1 10 -9 10 -10 0 -13 -6 -9
-17 5 -13 2 -15 -15 -11 -12 3 -20 3 -19 -1 5 -15 -43 -63 -58 -57 -10 3 -15
-1 -15 -12 -1 -22 -28 -58 -37 -49 -3 4 1 13 10 20 15 11 14 13 -1 27 -14 13
-15 12 -9 -3 6 -15 3 -17 -14 -12 -20 7 -20 6 -4 -19 14 -21 22 -25 44 -20 14
4 30 10 35 15 5 4 15 5 22 2 8 -3 14 0 14 7 0 6 4 8 10 5 6 -4 7 1 3 10 -4 13
-1 16 13 13 10 -2 19 -10 19 -17 0 -8 10 -16 23 -17 12 -2 22 1 22 7 0 5 5 7
10 4 14 -9 2 -25 -19 -25 -21 0 -49 -89 -30 -100 8 -6 8 -10 -2 -16 -7 -4 -14
-3 -17 4 -2 7 -13 12 -24 12 -17 0 -18 3 -8 15 7 8 19 15 26 15 8 0 14 5 14
10 0 6 -4 10 -9 10 -5 0 -18 3 -28 7 -16 6 -16 5 -4 -10 12 -15 11 -17 -3 -17
-9 0 -16 4 -16 10 0 5 -7 7 -16 3 -14 -5 -14 -7 3 -17 12 -7 19 -20 18 -34 -1
-18 2 -21 18 -16 13 4 17 2 13 -5 -4 -6 -2 -11 5 -11 10 0 10 -3 1 -12 -8 -8
-15 -8 -24 0 -9 7 -19 7 -28 2 -12 -8 -10 -10 8 -10 13 0 20 -4 17 -10 -3 -6
13 -8 43 -6 43 2 49 0 44 -16 -2 -10 0 -18 6 -18 14 0 22 -39 10 -46 -6 -4 -5
-10 3 -15 11 -6 11 -11 2 -20 -10 -10 -14 -6 -19 19 -4 18 -11 35 -16 38 -6 4
-7 -2 -3 -15 3 -12 2 -21 -4 -21 -5 0 -17 -3 -26 -6 -11 -5 -16 -2 -15 7 4 28
0 39 -15 39 -8 0 -15 -4 -15 -10 0 -5 -4 -10 -10 -10 -5 0 -10 6 -10 13 0 7
-9 18 -19 24 -16 10 -20 9 -24 -8 -3 -11 1 -23 9 -27 16 -9 9 -42 -8 -42 -5 0
-21 -12 -36 -26 -27 -26 -27 -26 -2 -13 14 8 30 15 35 15 6 1 12 3 15 4 27 10
47 6 58 -10 10 -16 9 -21 -8 -30 -16 -9 -18 -15 -10 -31 6 -11 15 -17 21 -14
5 4 9 2 9 -2 0 -15 47 -13 60 2 6 7 19 11 27 8 12 -5 14 -3 8 8 -8 12 -6 12 8
0 12 -9 17 -10 17 -2 0 7 10 3 21 -8 14 -13 20 -27 16 -40 -3 -12 -1 -21 4
-21 5 0 9 18 9 40 0 29 -4 40 -15 40 -8 0 -15 5 -15 11 0 6 7 9 14 6 11 -4 13
-1 9 11 -4 9 -11 20 -17 24 -7 5 -4 8 7 8 13 0 17 9 17 39 0 22 -5 41 -12 44
-10 4 -10 7 0 18 8 9 12 50 12 130 0 85 -3 119 -12 122 -10 4 -10 6 0 6 17 1
17 81 -1 81 -17 0 -39 37 -26 45 5 4 16 2 23 -5 12 -9 14 -2 14 39 1 28 -3 53
-9 56 -5 4 -9 11 -9 16 0 6 5 7 12 3 7 -4 8 -3 4 4 -10 17 -26 15 -26 -3z m10
-45 c0 -5 -4 -10 -10 -10 -5 0 -10 5 -10 10 0 6 5 10 10 10 6 0 10 -4 10 -10z
m-50 -145 c10 -12 10 -15 -2 -15 -8 0 -15 7 -15 15 0 8 1 15 2 15 2 0 8 -7 15
-15z m-4 -43 c1 -7 0 -8 -3 -2 -2 5 -9 8 -13 5 -5 -3 -12 0 -15 6 -5 7 -1 10
10 7 10 -1 20 -9 21 -16z m28 -218 c7 -19 0 -34 -17 -34 -7 0 -6 4 3 11 11 8
12 12 3 16 -15 5 -17 23 -4 23 5 0 12 -7 15 -16z m16 -52 c0 -4 -6 -14 -12
-22 -11 -12 -10 -12 4 -2 11 9 18 10 23 2 10 -17 -3 -28 -28 -23 -21 4 -27 23
-18 51 2 6 31 1 31 -6z m-76 -98 c3 -9 4 -20 0 -25 -3 -5 0 -9 5 -9 6 0 11 -4
11 -10 0 -5 -11 -10 -25 -10 -18 0 -26 7 -31 24 -3 14 -3 30 1 35 9 16 32 13
39 -5z m61 -4 c3 -5 1 -10 -4 -10 -6 0 -11 5 -11 10 0 6 2 10 4 10 3 0 8 -4
11 -10z"/>
<path d="M2960 1679 c0 -11 -4 -17 -10 -14 -6 3 -10 -4 -10 -17 0 -13 -4 -28
-9 -33 -12 -13 -31 -115 -24 -132 3 -7 0 -27 -6 -44 -9 -27 -8 -33 12 -49 12
-10 24 -16 27 -14 2 3 -2 9 -9 14 -11 6 -10 13 6 36 21 30 37 132 34 214 -1
25 2 41 6 35 10 -13 33 -18 33 -7 0 5 -11 14 -25 20 -22 10 -25 9 -25 -9z"/>
<path d="M65 1670 c3 -5 8 -10 11 -10 2 0 4 5 4 10 0 6 -5 10 -11 10 -5 0 -7
-4 -4 -10z"/>
<path d="M128 1673 c6 -2 12 -12 12 -21 0 -13 3 -13 12 -4 10 10 10 15 -2 22
-8 5 -19 9 -25 9 -5 0 -4 -3 3 -6z"/>
<path d="M3840 1673 c0 -7 -6 -13 -14 -13 -10 0 -13 -9 -11 -27 1 -16 -2 -32
-9 -36 -7 -6 -4 -7 7 -3 10 3 23 6 28 6 6 0 5 9 -1 21 -7 11 -9 23 -6 27 3 3
6 -1 6 -8 0 -10 3 -11 11 -3 8 8 8 16 0 30 -6 10 -11 12 -11 6z"/>
<path d="M175 1651 c-3 -6 4 -15 15 -21 20 -11 21 -10 10 9 -12 23 -16 25 -25
12z"/>
<path d="M300 1634 c0 -10 6 -14 14 -11 11 5 14 -1 11 -23 -4 -32 9 -49 19
-25 3 8 1 17 -5 21 -7 4 -6 10 1 19 11 13 8 17 -22 28 -12 4 -18 1 -18 -9z"/>
<path d="M70 1624 c0 -8 5 -12 10 -9 6 4 8 11 5 16 -9 14 -15 11 -15 -7z"/>
<path d="M382 1604 c10 -10 20 -16 22 -13 3 3 -5 11 -17 18 -21 13 -21 12 -5
-5z"/>
<path d="M3540 1605 c0 -8 -5 -15 -12 -15 -23 0 6 -17 40 -23 26 -5 32 -3 32
11 0 15 -2 15 -10 2 -7 -12 -10 -12 -10 -1 0 8 -6 11 -16 7 -13 -5 -14 -4 -6
7 7 8 9 17 5 20 -11 12 -23 8 -23 -8z"/>
<path d="M875 1600 c-3 -5 -2 -10 4 -10 5 0 13 5 16 10 3 6 2 10 -4 10 -5 0
-13 -4 -16 -10z"/>
<path d="M260 1570 c-13 -9 -11 -13 10 -31 17 -14 26 -17 28 -9 3 7 -3 17 -12
22 -9 5 -14 13 -11 19 8 12 4 11 -15 -1z"/>
<path d="M385 1560 c3 -5 8 -10 11 -10 2 0 4 5 4 10 0 6 -5 10 -11 10 -5 0 -7
-4 -4 -10z"/>
<path d="M839 1553 c-13 -16 -12 -17 4 -4 9 7 17 15 17 17 0 8 -8 3 -21 -13z"/>
<path d="M320 1541 c0 -6 4 -13 10 -16 6 -3 7 1 4 9 -7 18 -14 21 -14 7z"/>
<path d="M597 1528 c-3 -8 5 -14 19 -14 20 -2 21 0 9 12 -17 17 -22 17 -28 2z"/>
<path d="M759 1513 c-13 -16 -12 -17 4 -4 9 7 17 15 17 17 0 8 -8 3 -21 -13z"/>
<path d="M143 1497 c4 -10 7 -25 7 -33 0 -8 8 -17 18 -21 9 -3 26 -13 36 -22
18 -15 18 -15 5 9 -7 14 -12 33 -10 43 1 9 -3 17 -9 17 -6 0 -8 -6 -4 -12 4
-7 -5 -2 -21 12 -22 20 -27 21 -22 7z"/>
<path d="M285 1500 c3 -5 11 -10 16 -10 6 0 7 5 4 10 -3 6 -11 10 -16 10 -6 0
-7 -4 -4 -10z"/>
<path d="M3200 1502 c0 -5 7 -15 15 -22 8 -7 15 -8 15 -2 0 5 -7 15 -15 22 -8
7 -15 8 -15 2z"/>
<path d="M3670 1496 c0 -9 5 -16 10 -16 6 0 10 4 10 9 0 6 -4 13 -10 16 -5 3
-10 -1 -10 -9z"/>
<path d="M26 1482 c-4 -7 -4 -12 1 -13 4 0 -1 -4 -12 -9 -17 -7 -17 -9 -3 -9
11 -1 21 -13 25 -31 6 -23 11 -27 23 -20 9 6 10 10 3 10 -16 0 -5 30 16 48 14
11 14 11 -2 6 -11 -4 -23 0 -31 11 -9 13 -15 15 -20 7z"/>
<path d="M320 1479 c0 -6 -7 -9 -15 -6 -8 4 -17 2 -20 -3 -4 -6 -1 -10 6 -10
7 0 2 -12 -12 -26 -15 -16 -19 -24 -9 -22 16 3 50 36 50 49 0 4 8 9 18 11 16
3 16 4 0 10 -11 4 -18 3 -18 -3z"/>
<path d="M560 1455 c-7 -9 -11 -17 -9 -20 3 -2 10 5 17 15 14 24 10 26 -8 5z"/>
<path d="M711 1447 c-13 -21 -12 -21 5 -5 10 10 16 20 13 22 -3 3 -11 -5 -18
-17z"/>
<path d="M350 1429 c0 -5 5 -7 10 -4 6 3 10 8 10 11 0 2 -4 4 -10 4 -5 0 -10
-5 -10 -11z"/>
<path d="M3246 1421 c-10 -11 -13 -22 -8 -25 5 -3 12 4 15 15 4 13 10 18 18
13 8 -4 10 -3 5 4 -9 15 -10 15 -30 -7z"/>
<path d="M0 1421 c0 -5 5 -13 10 -16 5 -3 10 -2 10 4 0 5 -4 13 -10 16 -5 3
-10 2 -10 -4z"/>
<path d="M669 1413 c-13 -16 -12 -17 4 -4 9 7 17 15 17 17 0 8 -8 3 -21 -13z"/>
<path d="M3401 1404 c-16 -19 -11 -25 16 -18 13 4 20 11 16 20 -7 18 -14 17
-32 -2z"/>
<path d="M143 1391 c-1 -11 5 -22 13 -25 7 -3 11 -12 8 -21 -3 -8 8 -2 26 15
30 28 58 41 45 21 -10 -17 10 -20 35 -5 l25 13 -28 1 c-18 0 -26 4 -21 11 4 6
-3 6 -17 -2 -34 -19 -69 -21 -69 -3 0 21 -16 17 -17 -5z"/>
<path d="M600 1380 c-19 -11 -41 -19 -48 -20 -7 0 -25 -12 -40 -26 -15 -14
-46 -38 -68 -54 -23 -16 -57 -53 -75 -82 -19 -29 -37 -54 -41 -56 -5 -2 -8 -8
-8 -13 0 -5 9 -4 19 3 11 7 19 14 18 17 -4 11 58 101 73 106 8 3 32 20 53 38
21 19 67 48 102 66 60 29 77 42 58 41 -5 -1 -24 -9 -43 -20z"/>
<path d="M530 1380 c0 -5 5 -10 10 -10 6 0 10 5 10 10 0 6 -4 10 -10 10 -5 0
-10 -4 -10 -10z"/>
<path d="M10 1370 c20 -13 40 -13 40 0 0 6 -12 10 -27 10 -22 0 -25 -2 -13
-10z"/>
<path d="M685 1344 c-16 -12 -17 -16 -6 -23 7 -5 10 -14 7 -20 -8 -13 3 -14
23 -2 9 6 10 11 2 15 -17 11 -13 29 5 22 14 -5 15 -4 4 9 -7 8 -13 15 -14 15
0 0 -10 -7 -21 -16z"/>
<path d="M40 1335 c0 -8 -4 -15 -9 -15 -5 0 -7 -9 -4 -20 3 -12 -1 -22 -10
-25 -8 -4 -14 -17 -14 -31 0 -23 12 -33 19 -15 2 5 12 3 23 -5 18 -13 18 -15
2 -32 -16 -15 -19 -15 -28 -2 -9 13 -10 12 -5 -2 3 -10 1 -20 -4 -23 -6 -4
-10 -11 -10 -18 0 -6 15 4 34 22 19 18 36 28 40 23 6 -9 36 -157 36 -176 0 -5
-8 -2 -17 5 -10 8 -14 9 -10 2 4 -6 3 -14 -3 -18 -6 -4 -8 -10 -5 -15 3 -4 -2
-11 -11 -14 -12 -4 -15 -2 -11 9 4 8 1 17 -5 21 -7 5 -9 -2 -6 -21 4 -21 1
-29 -13 -32 -11 -3 -19 -9 -19 -14 0 -8 30 -1 40 10 3 3 16 12 29 19 21 13 23
12 17 -3 -3 -9 -6 -19 -6 -21 0 -2 -7 -4 -15 -4 -8 0 -15 -8 -15 -18 0 -10 -4
-22 -8 -28 -15 -16 -54 -84 -49 -84 3 0 25 28 50 63 34 47 65 75 131 117 47
30 86 58 86 63 0 13 -20 7 -40 -13 -17 -17 -91 -60 -105 -60 -3 0 -5 13 -5 29
0 39 -27 167 -40 192 -10 18 -8 20 18 18 4 0 10 10 13 23 3 14 12 22 22 22 9
-1 17 2 17 8 0 5 5 6 11 2 6 -3 3 8 -5 25 -9 17 -19 31 -22 31 -3 0 -3 -4 0
-8 3 -5 -6 -15 -19 -22 -14 -7 -25 -17 -25 -22 0 -5 5 -6 10 -3 16 10 11 -4
-9 -26 -19 -21 -19 -20 -32 18 -7 21 -12 48 -10 61 1 12 0 22 -3 22 -3 0 -6
-7 -6 -15z"/>
<path d="M60 1334 c0 -3 7 -12 15 -20 13 -13 15 -13 15 -1 0 8 -7 17 -15 21
-8 3 -15 3 -15 0z"/>
<path d="M3367 1329 c8 -8 16 -8 30 0 16 9 14 10 -11 11 -22 0 -27 -3 -19 -11z"/>
<path d="M640 1315 c0 -8 5 -15 10 -15 6 0 10 7 10 15 0 8 -4 15 -10 15 -5 0
-10 -7 -10 -15z"/>
<path d="M3518 1324 c17 -8 15 -22 -5 -27 -11 -3 -7 -5 10 -6 22 -1 28 3 25
16 -2 10 -12 19 -23 20 -11 2 -14 0 -7 -3z"/>
<path d="M3336 1304 c-8 -22 -8 -24 7 -24 7 0 13 9 14 20 2 24 -12 27 -21 4z"/>
<path d="M3395 1310 c-3 -5 -1 -10 4 -10 6 0 11 5 11 10 0 6 -2 10 -4 10 -3 0
-8 -4 -11 -10z"/>
<path d="M3740 1291 c0 -5 5 -13 10 -16 6 -3 10 -2 10 4 0 5 -4 13 -10 16 -5
3 -10 2 -10 -4z"/>
<path d="M650 1275 c0 -8 5 -15 10 -15 6 0 10 7 10 15 0 8 -4 15 -10 15 -5 0
-10 -7 -10 -15z"/>
<path d="M3370 1284 c0 -2 14 -10 30 -19 17 -9 30 -11 30 -5 0 5 -7 10 -15 10
-8 0 -15 4 -15 8 0 5 -7 9 -15 9 -8 0 -15 -2 -15 -3z"/>
<path d="M3555 1280 c-3 -5 -20 -7 -37 -3 -22 4 -29 3 -24 -5 12 -20 -4 -35
-22 -20 -10 8 -13 9 -9 1 5 -8 -3 -11 -28 -9 -30 3 -35 0 -35 -18 0 -16 3 -17
9 -7 7 10 10 10 16 1 4 -7 1 -16 -6 -21 -11 -7 -9 -9 6 -9 17 0 17 -2 5 -10
-13 -9 -13 -11 0 -19 16 -11 16 -12 -24 -29 -33 -15 -47 -9 -18 7 27 14 22 47
-7 43 -11 -2 -21 2 -21 8 0 6 -5 8 -10 5 -8 -5 -7 -11 1 -21 9 -11 8 -14 -7
-14 -18 -1 -18 -1 -1 -11 23 -14 22 -29 -3 -29 -14 0 -26 -11 -35 -32 -12 -27
-14 -29 -15 -11 0 12 -4 24 -9 27 -14 9 -21 -20 -8 -33 8 -8 6 -11 -7 -11 -14
0 -17 5 -12 24 5 21 2 24 -19 22 -26 -1 -36 -26 -10 -26 20 0 19 -10 -2 -26
-11 -8 -13 -13 -5 -14 6 0 12 -7 12 -16 0 -8 5 -12 10 -9 6 3 10 1 10 -4 0 -6
-7 -11 -15 -11 -18 0 -49 45 -41 59 7 11 -61 27 -71 18 -3 -4 -15 -1 -26 4
-18 10 -19 9 -14 -11 5 -19 2 -21 -18 -17 -14 2 -26 -1 -28 -7 -3 -7 -9 -7
-20 3 -15 12 -17 11 -17 -7 0 -11 -6 -23 -12 -25 -7 -3 7 -4 32 -2 25 2 37 1
28 -2 -16 -4 -17 -6 -2 -20 8 -9 13 -24 11 -34 -4 -15 0 -18 23 -15 22 2 26 0
23 -14 -3 -12 -11 -16 -26 -12 -16 4 -19 2 -14 -11 7 -18 3 -22 -34 -31 -21
-4 -26 -2 -25 10 0 9 -8 21 -19 28 -11 6 -23 15 -26 20 -4 5 -11 6 -16 3 -4
-3 -13 6 -20 19 -8 17 -8 26 -1 31 6 3 8 1 5 -4 -4 -6 0 -16 8 -23 14 -11 14
-10 6 12 -5 14 -7 29 -3 34 4 4 -1 4 -11 1 -10 -4 -21 -7 -23 -7 -2 0 -4 -7
-4 -15 0 -8 -9 -15 -19 -15 -11 0 -23 -4 -26 -10 -3 -5 -2 -10 3 -10 6 0 12
-7 16 -15 4 -11 -1 -15 -17 -15 -16 0 -18 3 -9 9 11 7 11 9 -2 14 -9 4 -15 3
-15 -1 4 -23 -3 -34 -17 -28 -8 3 -13 2 -9 -3 3 -5 -1 -12 -7 -14 -7 -3 -1 -6
14 -6 15 -1 30 -6 33 -12 4 -6 14 -8 22 -5 8 3 11 1 8 -4 -3 -6 -1 -10 4 -10
6 0 11 -5 11 -11 0 -8 -4 -8 -13 -1 -7 6 -18 7 -26 2 -8 -4 -19 -6 -25 -4 -7
3 -12 -5 -13 -16 -2 -17 2 -20 20 -15 16 5 18 4 8 -4 -12 -8 -12 -12 -2 -25 7
-8 19 -12 28 -9 12 5 12 7 1 14 -10 7 -9 9 5 9 11 0 15 5 11 11 -4 7 -1 10 7
7 8 -3 12 -14 11 -24 -3 -15 -1 -17 9 -6 18 17 29 15 29 -5 1 -17 1 -17 11 0
5 9 7 22 4 27 -3 6 1 7 9 4 18 -7 22 -24 6 -24 -5 0 -10 -4 -10 -10 0 -18 18
-10 25 10 4 11 10 18 15 15 5 -3 11 -1 15 5 4 6 10 8 15 5 5 -3 11 -1 15 5 3
5 16 15 28 22 19 10 20 9 10 -3 -8 -10 -9 -20 -3 -29 8 -12 10 -12 10 -1 0 7
6 11 13 8 8 -3 19 -2 26 2 10 6 10 11 -1 22 -12 12 -11 17 4 32 16 15 19 15
24 2 7 -17 44 -21 44 -5 0 6 5 10 10 10 6 0 10 -7 10 -15 0 -8 -5 -14 -11 -13
-6 2 -15 -7 -20 -19 -7 -18 -5 -23 9 -24 10 0 12 -3 5 -6 -7 -2 -13 -8 -13
-13 0 -14 32 -21 46 -9 17 14 19 33 3 23 -7 -4 -10 -1 -7 7 6 19 33 18 33 -1
0 -19 32 -32 56 -25 11 4 19 2 19 -4 0 -6 -7 -11 -15 -11 -8 0 -15 -4 -15 -10
0 -9 14 -14 33 -11 7 1 1 -55 -8 -68 -2 -4 30 -8 71 -9 48 -1 73 2 69 8 -3 6
-18 10 -32 10 -15 0 -23 3 -19 7 3 4 -4 13 -16 20 l-23 14 25 -7 c14 -4 27
-11 28 -15 6 -15 22 -10 22 6 0 8 4 15 10 15 5 0 6 7 3 17 -5 12 -3 14 8 7 24
-14 35 -12 35 7 0 13 -3 15 -13 7 -9 -7 -13 -7 -13 0 0 6 9 13 19 17 13 4 18
11 14 22 -5 13 -2 15 11 10 10 -4 24 -7 32 -7 9 0 12 -5 9 -11 -4 -6 -13 -8
-21 -5 -7 3 -16 1 -19 -3 -2 -5 6 -11 19 -13 19 -4 26 0 30 19 7 24 20 30 31
13 3 -5 12 -7 19 -4 8 3 16 -4 19 -15 3 -12 1 -21 -4 -21 -4 0 -6 -7 -2 -16 5
-14 1 -16 -18 -12 -13 3 -32 9 -42 13 -16 7 -16 6 -1 -22 15 -26 54 -41 54
-21 0 4 10 -2 22 -14 13 -13 22 -28 20 -35 -2 -8 3 -10 13 -7 8 3 15 10 15 14
0 5 9 6 20 3 14 -4 20 0 20 11 0 9 7 16 15 16 8 0 15 -9 15 -21 0 -12 4 -17
11 -14 6 4 8 13 5 21 -3 8 -1 14 3 14 22 0 15 -29 -17 -75 -19 -27 -33 -43
-29 -34 6 18 -18 34 -68 43 -16 4 -40 9 -52 11 -42 10 -24 -4 20 -15 51 -13
87 -30 87 -42 0 -4 -7 -8 -16 -8 -8 0 -12 5 -9 10 3 6 2 10 -3 10 -6 0 -13 -7
-16 -16 -3 -8 -2 -12 4 -9 6 3 10 2 10 -4 0 -5 9 -13 20 -16 11 -3 20 -15 20
-26 0 -24 -8 -24 -36 2 -12 12 -33 22 -47 23 -18 1 -23 5 -19 21 4 20 4 20
-10 1 -10 -13 -17 -15 -22 -8 -10 16 -43 15 -49 0 -3 -10 -12 -9 -34 4 -17 10
-33 15 -37 11 -3 -3 -6 -1 -6 4 0 6 -19 14 -41 18 -23 4 -38 10 -33 14 5 3 14
13 21 21 10 13 9 16 -7 16 -10 0 -18 -5 -17 -10 1 -6 -8 -11 -20 -12 -27 -2
-31 12 -5 20 9 3 -1 3 -23 0 -22 -2 -48 -4 -57 -5 -22 0 -65 31 -71 51 -4 11
-5 11 -6 -2 -2 -37 -21 -16 -22 25 -1 23 -4 32 -6 20 -2 -13 -9 -23 -15 -23
-7 0 -6 -5 1 -14 7 -8 10 -25 7 -39 -3 -16 2 -31 13 -41 15 -14 18 -14 19 -1
1 8 3 22 4 30 2 21 14 19 32 -7 20 -28 20 -38 1 -38 -8 0 -14 -3 -14 -7 1 -5
1 -17 0 -27 -1 -20 -1 -20 -16 0 -15 19 -15 19 -8 -1 3 -11 3 -17 -2 -13 -9 9
-35 -9 -35 -24 0 -6 9 -8 20 -5 13 3 20 0 20 -9 0 -8 5 -14 10 -14 6 0 10 7
10 15 0 9 6 12 17 8 11 -4 14 -3 9 5 -5 8 -2 10 8 6 23 -9 38 4 23 21 -8 8
-16 10 -24 3 -8 -6 -10 -3 -6 11 3 12 9 21 14 21 5 0 6 7 2 16 -5 14 -2 16 20
11 16 -5 27 -3 30 6 3 8 11 6 27 -8 12 -11 23 -18 24 -16 0 3 10 -1 21 -8 13
-8 16 -14 8 -17 -15 -7 -5 -34 13 -34 8 0 13 3 13 8 -3 18 2 32 12 32 5 0 8
-4 5 -8 -3 -5 5 -8 17 -7 13 2 31 -8 44 -24 l21 -26 20 23 c11 12 21 22 24 22
2 0 4 -20 4 -45 -1 -34 -4 -44 -14 -40 -8 3 -24 5 -38 5 -17 0 -25 7 -30 25
-8 32 -23 33 -17 1 4 -20 1 -23 -25 -22 -17 1 -28 4 -25 8 8 14 -8 8 -32 -11
-17 -13 -21 -21 -13 -29 17 -17 -18 -48 -37 -32 -8 7 -12 16 -9 21 3 5 -2 9
-11 9 -8 0 -18 7 -21 15 -4 8 -16 15 -28 14 -21 0 -21 0 2 -11 22 -11 30 -28
12 -28 -5 0 -10 5 -10 11 0 7 -10 9 -25 7 -17 -4 -25 -1 -25 8 0 8 -7 14 -15
14 -13 0 -14 -4 -5 -20 7 -14 7 -20 0 -20 -5 0 -10 5 -10 10 0 6 -9 19 -19 29
-26 26 -43 59 -37 70 3 5 -1 12 -10 15 -10 4 -18 -1 -21 -13 -3 -12 -11 -17
-19 -14 -8 3 -14 0 -14 -6 0 -6 5 -11 10 -11 6 0 10 -9 10 -21 0 -11 5 -17 10
-14 6 3 10 2 10 -4 0 -5 -6 -12 -12 -14 -7 -3 3 -3 23 0 27 4 38 1 42 -10 4
-11 2 -14 -9 -10 -7 3 -14 1 -14 -5 0 -15 23 -29 45 -27 17 1 20 -5 21 -39 0
-23 4 -52 9 -65 5 -18 4 -22 -6 -16 -8 5 -6 -1 5 -13 16 -19 17 -22 3 -28 -8
-3 -29 2 -46 10 -35 19 -41 20 -41 5 0 -5 4 -8 8 -5 5 3 21 -4 37 -14 25 -16
27 -20 12 -26 -15 -5 -15 -9 -5 -22 11 -13 10 -15 -9 -10 -16 4 -23 2 -23 -9
0 -10 6 -13 16 -9 9 4 23 1 30 -5 23 -19 16 -29 -12 -19 -37 15 -42 12 -16
-10 31 -26 31 -25 0 -49 -18 -15 -36 -20 -55 -17 -15 2 -34 5 -40 5 -7 1 -13
7 -13 15 0 9 8 12 25 8 20 -3 25 0 25 16 0 27 -17 38 -23 15 -4 -17 -5 -17 -6
0 0 9 -8 17 -16 17 -8 0 -14 -3 -12 -7 1 -5 -1 -9 -6 -10 -16 -6 -27 -3 -27 8
0 5 5 7 10 4 6 -3 10 1 10 10 0 9 -3 14 -7 12 -5 -2 -16 4 -25 14 -16 17 -15
18 13 28 27 9 29 8 29 -15 0 -17 5 -24 20 -24 23 0 25 9 7 34 -11 14 -23 20
-57 25 -3 1 -5 12 -5 26 0 26 9 33 20 15 12 -20 27 -10 21 14 -7 30 9 42 32
25 9 -7 4 1 -12 19 -17 18 -24 32 -17 32 7 0 9 4 6 10 -4 6 -17 3 -33 -7 -27
-17 -27 -17 -9 3 9 11 14 24 10 29 -5 4 -3 5 3 2 6 -3 11 0 11 8 0 8 -4 12 -8
9 -4 -2 -10 0 -13 5 -3 5 1 12 10 15 26 10 36 7 30 -9 -3 -8 -1 -15 5 -15 6 0
7 -4 4 -10 -3 -5 0 -10 8 -10 8 0 18 7 21 16 9 23 8 26 -6 18 -8 -5 -9 -2 -5
10 4 10 3 15 -3 11 -6 -3 -16 -3 -22 2 -7 4 -19 8 -27 8 -8 0 -16 6 -19 13 -2
7 0 12 5 11 27 -5 32 2 23 27 -9 21 -7 29 7 39 10 7 21 11 25 9 5 -3 8 -1 8 5
0 15 -35 31 -59 26 -11 -2 -21 0 -21 6 0 14 -37 11 -37 -3 0 -7 -2 -20 -4 -28
-3 -9 2 -14 11 -12 8 2 23 4 32 5 10 1 18 5 18 9 0 4 5 8 10 8 21 0 8 -17 -25
-33 -24 -11 -33 -21 -29 -32 4 -8 1 -15 -5 -15 -16 0 -14 -21 5 -41 10 -11 12
-19 5 -24 -6 -3 -11 -1 -11 6 0 10 -3 10 -11 2 -6 -6 -17 -9 -24 -7 -7 3 -16
1 -19 -4 -4 -6 5 -9 19 -7 15 1 25 -3 25 -11 0 -7 6 -15 13 -17 7 -3 6 -6 -5
-6 -9 -1 -19 3 -22 8 -3 5 -24 6 -48 4 -32 -4 -45 -1 -55 13 -15 21 -17 38 -3
29 6 -3 10 -1 10 5 0 6 -8 10 -17 8 -10 -2 -24 10 -37 31 -11 19 -15 31 -8 27
8 -5 12 0 12 13 0 13 7 21 18 22 9 0 28 2 41 5 20 4 22 2 11 -11 -10 -12 -10
-15 0 -15 7 0 10 -8 7 -20 -7 -28 19 -26 27 3 7 21 7 22 17 2 8 -17 8 -16 4 7
-3 15 0 30 6 34 8 5 7 10 -4 16 -9 5 -14 14 -11 22 3 7 -2 19 -11 26 -11 9
-15 9 -15 1 0 -8 -7 -6 -17 5 -16 15 -16 17 2 30 10 8 24 14 31 14 7 0 14 3
17 8 2 4 2 2 1 -5 -2 -6 3 -17 11 -23 11 -9 12 -7 8 9 -3 12 -1 21 6 21 6 0
11 -9 11 -21 0 -12 5 -19 13 -16 6 2 10 14 9 27 -4 22 -2 23 14 10 16 -14 16
-13 6 7 -10 18 -9 23 8 28 20 6 59 -9 72 -29 9 -13 -1 -48 -16 -58 -8 -5 -7
-8 2 -8 8 0 10 -5 6 -12 -4 -7 -3 -10 1 -5 5 4 16 0 25 -8 16 -14 19 -14 34 0
22 23 20 42 -3 21 -16 -15 -19 -15 -31 -1 -7 9 -8 15 -2 15 6 0 13 -6 16 -12
4 -7 4 -3 2 9 -2 12 1 24 8 27 8 3 7 7 -3 14 -9 7 -10 12 -2 16 16 10 13 36
-4 36 -9 0 -12 -6 -9 -15 9 -22 -14 -18 -26 4 -12 23 -4 51 15 51 19 0 26 27
9 34 -9 3 -22 -1 -30 -9 -9 -8 -26 -15 -38 -15 -27 0 -51 -24 -40 -41 4 -7 2
-10 -7 -7 -8 3 -13 12 -11 20 1 9 -4 21 -13 28 -12 10 -16 9 -21 -3 -3 -9 -3
-21 1 -26 4 -8 -2 -8 -19 -1 -14 5 -33 7 -43 3 -12 -5 -15 -2 -10 10 7 18 -17
25 -28 8 -6 -11 -57 -7 -76 5 -9 5 -10 2 -6 -9 4 -12 1 -17 -11 -18 -9 0 -25
-2 -34 -4 -22 -4 -24 13 -3 21 16 7 21 24 6 24 -5 0 -16 -7 -25 -15 -13 -14
-16 -13 -27 7 -11 20 -10 22 3 10 13 -10 17 -10 21 1 6 16 -19 16 -46 1 -16
-9 -32 -84 -17 -84 3 0 6 -9 6 -20 0 -12 -7 -20 -18 -20 -11 0 -16 -7 -15 -20
2 -24 12 -26 21 -5 3 8 10 15 16 15 18 0 11 -28 -15 -56 -27 -29 -28 -34 -19
-58 10 -25 22 -19 34 20 11 32 13 34 25 17 11 -15 11 -21 -2 -35 -9 -10 -13
-18 -8 -18 4 0 1 -7 -6 -17 -13 -15 -11 -16 13 -10 22 6 26 4 22 -8 -3 -8 -11
-12 -18 -8 -7 4 -7 1 1 -9 7 -8 10 -18 6 -22 -4 -3 2 -12 12 -19 16 -13 17
-14 1 -20 -9 -4 -15 -3 -12 2 3 5 -2 12 -11 15 -10 4 -20 1 -25 -9 -5 -8 -20
-15 -32 -15 -20 0 -25 -6 -28 -34 -4 -40 0 -58 13 -50 15 9 10 -23 -6 -36 -9
-8 -14 -27 -13 -56 2 -46 7 -51 25 -33 8 8 13 8 18 -1 9 -14 -13 -40 -34 -40
-13 -1 -13 -3 3 -15 11 -8 14 -15 8 -15 -15 0 -16 -47 -1 -89 11 -31 12 -31
78 -31 39 0 72 5 79 12 9 9 12 9 12 0 0 -7 7 -12 15 -12 8 0 15 7 15 15 0 8
-9 15 -20 15 -13 0 -18 5 -14 15 5 12 9 12 30 -2 14 -9 23 -21 21 -27 -3 -8
44 -12 154 -15 126 -2 159 0 159 10 0 10 3 10 12 1 13 -13 135 -15 178 -3 24
7 24 7 5 20 -17 11 -14 11 25 6 25 -3 58 -13 74 -21 43 -21 93 -18 106 6 6 11
15 20 21 20 6 0 6 -7 -1 -20 -11 -20 -9 -21 32 -19 24 1 52 8 63 16 19 13 19
13 -4 13 -19 0 -22 4 -17 23 17 59 17 74 2 90 -9 8 -16 22 -16 29 0 8 3 9 8 3
4 -5 17 -10 29 -11 19 0 20 2 8 20 -14 21 -15 24 -15 51 0 12 -4 14 -19 5 -23
-12 -33 -1 -36 41 -2 20 1 26 11 22 12 -5 19 -24 15 -45 0 -5 4 -8 9 -8 6 0
10 4 10 9 0 4 11 6 25 3 14 -2 23 -8 20 -11 -2 -4 9 -8 25 -8 18 0 30 6 30 14
0 16 12 17 26 3 16 -16 36 11 24 30 -8 13 -13 13 -30 2 -11 -7 -25 -10 -30 -7
-6 4 -10 -1 -10 -9 0 -25 -17 -18 -22 9 -6 29 1 39 17 25 8 -7 12 -5 12 5 0 8
-4 15 -7 15 -4 0 -7 11 -7 25 0 16 5 25 15 25 12 0 13 3 4 12 -7 7 -12 16 -12
20 0 12 38 10 45 -2 3 -5 20 -10 38 -10 24 0 28 3 19 12 -7 7 -12 18 -12 26 0
12 3 12 15 2 8 -7 15 -9 15 -4 0 5 9 -2 20 -16 16 -21 21 -23 32 -12 11 11 9
12 -7 6 l-20 -7 20 20 c11 11 23 19 28 16 4 -2 7 1 7 6 0 6 -5 11 -12 11 -6 0
-9 2 -7 5 3 2 15 2 27 -2 28 -7 29 -30 2 -38 -11 -4 -18 -10 -15 -15 3 -5 -1
-10 -7 -13 -7 -2 -10 -7 -6 -11 3 -4 16 -3 27 4 27 14 47 4 30 -16 -9 -11 -15
-11 -25 -3 -10 8 -14 8 -14 0 0 -17 -19 -13 -46 8 -26 20 -59 17 -111 -10 -18
-10 -19 -14 -9 -25 8 -7 22 -10 34 -8 11 3 23 1 26 -5 4 -6 11 -11 16 -11 9 0
25 39 22 53 -1 4 2 7 7 7 10 0 28 -43 20 -47 -2 -1 5 -9 16 -17 17 -14 18 -17
5 -26 -12 -8 -11 -10 8 -10 24 0 30 -15 10 -23 -10 -4 -9 -8 2 -17 12 -9 12
-13 2 -17 -9 -4 -10 -8 -2 -18 13 -16 50 -8 50 12 0 8 -4 12 -9 8 -5 -3 -12 5
-16 17 -18 64 -19 61 8 56 l25 -5 1 146 c1 151 -5 185 -29 156 -14 -17 -30
-20 -30 -5 0 6 7 10 15 10 18 0 18 2 4 34 -9 19 -9 29 -1 39 18 22 8 72 -16
75 -11 2 -22 12 -25 23 -3 12 -11 17 -21 13 -9 -3 -16 -1 -16 4 0 6 10 13 23
15 l22 4 -22 2 c-27 1 -27 1 -7 44 13 27 21 33 38 29 11 -3 24 -10 28 -16 5
-8 8 -7 8 1 0 7 7 10 15 7 13 -5 15 1 13 31 -2 27 -8 39 -21 41 -9 1 -14 -2
-11 -8 4 -6 0 -14 -7 -19 -10 -6 -11 -9 -1 -9 6 0 12 -7 12 -15 0 -14 -5 -14
-47 1 -16 6 -16 7 2 14 20 8 20 9 -1 9 -22 1 -48 -38 -49 -74 0 -11 -6 -20
-12 -19 -7 1 -22 2 -32 3 -24 1 -43 53 -36 95 4 25 0 35 -22 50 -14 11 -23 14
-19 8 4 -7 2 -12 -5 -12 -7 0 -21 -8 -32 -17 -14 -13 -21 -14 -24 -6 -2 7 -11
9 -19 6 -8 -3 -14 0 -14 7 0 8 9 10 24 6 26 -6 46 21 25 35 -6 4 -8 12 -5 18
4 6 2 11 -3 11 -6 0 -11 -5 -11 -12 0 -6 -3 -8 -6 -5 -4 4 -1 13 6 22 10 12
10 15 -4 15 -9 0 -16 5 -16 11 0 6 -9 8 -22 3 -13 -4 -29 -7 -36 -7 -7 0 -11
-6 -8 -14 3 -7 1 -13 -4 -13 -6 0 -10 -7 -10 -15 0 -20 -10 -19 -25 1 -17 24
-55 3 -48 -27 5 -16 11 -19 32 -14 14 3 21 2 16 -2 -6 -4 -11 -17 -10 -28 0
-19 -12 -35 -27 -35 -5 0 -8 7 -8 16 0 8 -5 12 -10 9 -7 -4 -7 -13 0 -26 6
-11 15 -17 21 -14 5 4 9 1 9 -4 0 -24 -32 -9 -41 19 -13 37 -22 38 -38 4 -15
-34 -36 -25 -35 15 1 17 -1 29 -5 26 -7 -4 -34 22 -39 38 -3 12 -17 3 -16 -10
1 -10 -3 -10 -20 -1 -17 10 -18 13 -5 16 9 1 19 14 22 28 3 20 2 22 -10 13
-11 -9 -17 -8 -27 7 -12 16 -12 33 2 57 2 5 12 -3 21 -17 10 -14 21 -23 24
-19 4 3 7 -1 7 -10 0 -9 7 -17 15 -17 8 0 15 -5 15 -11 0 -5 4 -7 10 -4 6 4 2
15 -10 27 -11 12 -17 24 -14 27 3 3 10 -2 15 -12 13 -23 36 -22 44 3 6 20 25
28 25 11 0 -5 7 -12 16 -15 8 -3 13 -2 9 3 -8 14 5 41 21 41 8 0 14 5 14 10 0
6 -5 10 -11 10 -6 0 -9 6 -6 13 2 6 10 11 16 10 6 -2 11 2 11 8 0 5 4 8 9 4 5
-3 12 4 16 15 4 12 15 20 30 20 12 0 26 7 29 16 3 9 12 14 19 11 8 -3 20 -1
28 4 11 7 11 11 1 21 -10 10 -14 10 -21 0 -6 -10 -10 -9 -14 7 -6 25 -27 28
-25 4 3 -36 -2 -54 -13 -48 -6 4 -8 14 -5 22 5 12 1 14 -16 9 -13 -4 -32 -9
-43 -10 -30 -5 -32 -7 -10 -15 19 -8 18 -8 -5 -21 -16 -8 -25 -9 -28 -2 -1 5
-11 8 -21 5 -9 -2 -24 3 -32 13 -13 16 -12 17 10 11 25 -6 51 11 51 35 0 10 2
11 8 0 10 -15 38 -7 46 14 6 16 0 19 -9 4z m-62 -104 c4 -10 1 -13 -8 -9 -8 3
-12 9 -9 14 7 12 11 11 17 -5z m-18 -66 c3 -5 1 -10 -4 -10 -6 0 -11 5 -11 10
0 6 2 10 4 10 3 0 8 -4 11 -10z m-75 -4 c0 -3 -4 -8 -10 -11 -5 -3 -10 -1 -10
4 0 6 5 11 10 11 6 0 10 -2 10 -4z m-260 -76 c0 -5 -5 -10 -11 -10 -5 0 -7 5
-4 10 3 6 8 10 11 10 2 0 4 -4 4 -10z m480 -31 c0 -5 -4 -9 -10 -9 -5 0 -10 7
-10 16 0 8 5 12 10 9 6 -3 10 -10 10 -16z m-373 -31 c-3 -8 -6 -5 -6 6 -1 11
2 17 5 13 3 -3 4 -12 1 -19z m147 -40 c-10 -15 -29 -8 -40 16 -11 23 -11 23
17 7 15 -8 25 -19 23 -23z m256 22 c0 -5 -7 -7 -16 -3 -14 5 -15 3 -5 -15 10
-18 8 -24 -14 -38 -30 -20 -44 -12 -24 13 9 11 10 14 2 9 -16 -9 -16 -1 -1 24
13 20 58 28 58 10z m90 -37 c0 -19 -13 -9 -16 12 -1 8 2 13 7 9 5 -3 9 -12 9
-21z m-475 7 c-3 -5 -2 -10 4 -10 5 0 13 5 16 10 10 16 28 11 21 -6 -3 -8 -2
-12 4 -9 6 3 10 0 10 -9 0 -8 -3 -16 -7 -19 -5 -2 -3 -3 2 -1 6 1 19 -4 30
-12 18 -14 18 -14 -1 -14 -19 1 -77 29 -59 30 5 0 -1 7 -13 16 -23 16 -29 34
-11 34 5 0 7 -4 4 -10z m88 -23 c-4 -7 1 -6 11 2 15 13 19 13 26 1 5 -8 6 -18
4 -22 -8 -13 -52 -9 -57 5 -6 17 3 38 14 31 5 -3 6 -11 2 -17z m427 13 c0 -5
-2 -10 -4 -10 -3 0 -8 5 -11 10 -3 6 -1 10 4 10 6 0 11 -4 11 -10z m-81 -31
c-14 -8 -39 -1 -39 11 0 14 24 18 38 7 10 -8 10 -12 1 -18z m-30 -10 c16 -12
34 -19 39 -15 6 3 13 2 16 -3 6 -9 -28 -18 -72 -19 -18 -1 -21 3 -16 24 4 15
2 24 -6 24 -6 0 -8 -4 -5 -10 3 -5 1 -18 -4 -27 -7 -12 -10 -14 -11 -4 0 10
-3 11 -13 2 -18 -14 -29 -3 -14 14 9 10 15 10 26 1 12 -9 14 -8 9 6 -13 33 11
37 51 7z m-589 2 c0 -5 -7 -12 -16 -15 -24 -9 -28 -7 -14 9 14 17 30 20 30 6z
m706 -6 c4 -8 1 -22 -5 -29 -9 -11 -9 -15 1 -19 9 -4 8 -6 -3 -6 -20 -1 -33
26 -17 35 7 5 5 12 -7 21 -18 12 -18 13 3 13 13 0 25 -7 28 -15z m-246 -10
c-7 -8 -16 -15 -20 -15 -4 0 -10 7 -14 15 -4 11 2 15 21 15 21 0 24 -2 13 -15z
m-576 -11 c3 -8 2 -12 -4 -9 -6 3 -10 10 -10 16 0 14 7 11 14 -7z m316 1 c7
-9 8 -15 2 -15 -5 0 -12 7 -16 15 -3 8 -4 15 -2 15 2 0 9 -7 16 -15z m120 -2
c0 -11 -34 -37 -51 -40 -27 -4 -24 30 4 43 20 9 47 8 47 -3z m345 -43 c-6 -20
9 -28 20 -10 3 6 12 10 18 9 9 0 9 -2 0 -6 -7 -2 -13 -13 -13 -23 0 -26 -15
-33 -30 -15 -11 14 -7 65 6 65 3 0 2 -9 -1 -20z m-255 0 c0 -5 -2 -10 -4 -10
-3 0 -8 5 -11 10 -3 6 -1 10 4 10 6 0 11 -4 11 -10z m220 -6 c0 -8 -4 -12 -10
-9 -5 3 -10 10 -10 16 0 5 5 9 10 9 6 0 10 -7 10 -16z m110 -24 c0 -5 -7 -10
-15 -10 -8 0 -15 5 -15 10 0 6 7 10 15 10 8 0 15 -4 15 -10z m45 0 c3 -5 14
-10 24 -10 10 0 25 -7 32 -16 12 -15 11 -16 -9 -10 -12 4 -35 8 -52 8 -22 1
-30 6 -30 20 0 19 25 25 35 8z m-170 -10 c3 -5 1 -10 -4 -10 -6 0 -11 5 -11
10 0 6 2 10 4 10 3 0 8 -4 11 -10z m-795 -22 c0 -16 -3 -19 -11 -11 -6 6 -8
16 -5 22 11 17 16 13 16 -11z m185 2 c3 -5 -1 -10 -9 -10 -9 0 -16 5 -16 10 0
6 4 10 9 10 6 0 13 -4 16 -10z m-281 -25 c3 -8 1 -15 -4 -15 -6 0 -10 7 -10
15 0 8 2 15 4 15 2 0 6 -7 10 -15z m43 9 c-3 -3 -12 -4 -19 -1 -8 3 -5 6 6 6
11 1 17 -2 13 -5z m-75 -26 c-6 -6 -15 -8 -19 -4 -4 4 -1 11 7 16 19 12 27 3
12 -12z m108 18 c0 -3 -4 -8 -10 -11 -5 -3 -10 -1 -10 4 0 6 5 11 10 11 6 0
10 -2 10 -4z m820 -6 c0 -5 -5 -10 -11 -10 -5 0 -7 5 -4 10 3 6 8 10 11 10 2
0 4 -4 4 -10z m-963 -20 c3 -10 2 -11 -4 -4 -4 6 -15 14 -23 17 -11 5 -9 6 4
4 11 -1 21 -9 23 -17z m118 -37 c3 -14 10 -20 19 -17 22 9 27 -11 10 -45 -8
-17 -18 -31 -20 -31 -3 0 -2 5 1 10 3 6 1 10 -4 10 -6 0 -11 -5 -11 -11 0 -5
-5 -7 -10 -4 -8 5 -8 11 0 20 8 9 7 14 -4 18 -8 3 -17 1 -20 -6 -2 -7 -5 -5
-5 5 -1 9 -7 19 -13 21 -8 4 -5 8 8 12 16 5 20 13 18 33 -3 30 19 52 24 24 1
-9 5 -27 7 -39z m555 37 c0 -5 -7 -7 -15 -4 -8 4 -12 10 -9 15 6 11 24 2 24
-11z m533 -6 c-4 -10 -9 -12 -15 -6 -12 12 -1 35 12 27 5 -3 6 -13 3 -21z
m-47 -31 c-5 -13 -4 -14 9 -3 12 10 18 10 30 0 17 -14 20 -30 5 -30 -5 0 -10
7 -10 16 0 14 -1 14 -16 0 -20 -20 -34 -20 -34 -1 0 14 -12 19 -32 16 -10 -1
-10 13 -1 22 3 4 15 0 25 -10 10 -9 18 -11 18 -5 0 6 -4 14 -10 17 -5 3 -10
11 -10 16 0 6 7 3 16 -6 9 -8 13 -23 10 -32z m-1092 21 c9 -24 0 -28 -23 -12
-12 8 -18 18 -14 21 12 12 31 7 37 -9z m-84 -3 c0 -12 -20 -25 -27 -18 -7 7 6
27 18 27 5 0 9 -4 9 -9z m46 -81 c20 0 18 -17 -3 -28 -25 -13 -41 -5 -57 27
-16 30 -6 61 19 61 8 0 16 6 17 13 1 6 3 -7 5 -30 3 -29 9 -43 19 -43z m1051
16 c-7 -18 74 -30 85 -13 5 9 10 9 19 0 8 -8 5 -13 -12 -18 -23 -8 -23 -8 -4
-15 12 -4 29 -1 43 8 12 8 23 12 23 8 1 -3 2 -9 3 -13 1 -5 5 -14 9 -20 5 -7
4 -13 -1 -13 -6 0 -13 7 -16 16 -3 8 -10 12 -16 9 -14 -9 6 -45 25 -45 8 0 15
-4 15 -10 0 -5 -5 -10 -11 -10 -16 0 -94 47 -113 69 -10 11 -23 18 -29 15 -19
-6 -38 11 -31 29 3 9 8 17 11 17 3 0 3 -6 0 -14z m-907 -26 c0 -5 -2 -10 -4
-10 -3 0 -8 5 -11 10 -3 6 -1 10 4 10 6 0 11 -4 11 -10z m918 -22 c17 -15 15
-26 -7 -38 -17 -9 -19 -7 -15 14 3 16 -2 26 -19 35 -22 11 -21 11 3 5 14 -4
31 -11 38 -16z m-198 -28 c0 -5 -4 -10 -10 -10 -5 0 -10 5 -10 10 0 6 5 10 10
10 6 0 10 -4 10 -10z m90 -20 c9 -16 8 -18 -5 -14 -8 4 -15 10 -15 16 0 5 -9
6 -20 3 -11 -4 -20 -2 -20 4 0 19 49 12 60 -9z m189 -1 c18 -11 31 -23 28 -26
-11 -10 -57 7 -57 21 0 8 -8 17 -17 19 -13 3 -14 5 -3 6 8 0 30 -8 49 -20z
m-129 -9 c0 -5 -7 -10 -15 -10 -8 0 -15 5 -15 10 0 6 7 10 15 10 8 0 15 -4 15
-10z m-130 -15 c11 -13 10 -14 -4 -9 -9 3 -16 10 -16 15 0 13 6 11 20 -6z
m-860 -3 c0 -17 -29 -47 -37 -38 -4 5 -2 11 5 13 6 3 12 11 12 19 0 8 5 14 10
14 6 0 10 -4 10 -8z m45 -22 c15 -30 15 -30 -10 -30 -16 0 -25 6 -25 15 0 8 4
15 10 15 5 0 7 7 4 15 -11 27 5 16 21 -15z m745 11 c0 -12 -20 -25 -27 -18 -7
7 6 27 18 27 5 0 9 -4 9 -9z m174 0 c10 -15 -19 -42 -37 -35 -17 6 -17 8 -1
25 19 21 30 24 38 10z m-233 -39 c-11 -2 -21 -10 -21 -17 0 -9 -6 -12 -15 -9
-8 4 -15 17 -15 30 0 17 4 22 15 18 8 -4 15 -1 15 6 0 9 8 6 21 -6 l21 -19
-21 -3z m389 17 c0 -5 -4 -9 -10 -9 -5 0 -10 7 -10 16 0 8 5 12 10 9 6 -3 10
-10 10 -16z m-223 4 c-4 -3 -2 -12 4 -20 15 -17 2 -17 -16 1 -14 14 -10 26 8
26 6 0 7 -3 4 -7z m128 -12 c-3 -6 -11 -8 -17 -5 -6 4 -5 9 3 15 16 10 23 4
14 -10z m-541 3 c9 -3 13 -10 10 -15 -3 -6 -1 -16 5 -23 6 -7 10 -24 9 -37 -2
-15 2 -23 10 -21 7 1 12 -8 12 -23 0 -17 5 -25 18 -24 10 0 12 3 5 6 -7 2 -13
12 -12 21 0 10 3 12 5 5 3 -7 12 -9 20 -6 11 4 12 8 3 19 -7 8 -9 18 -5 21 4
4 11 1 17 -7 6 -11 8 -5 4 20 -4 29 -3 32 7 19 7 -8 27 -22 44 -31 25 -12 33
-12 40 -2 10 15 70 20 97 9 17 -7 17 -9 1 -26 -21 -24 -34 -24 -35 -1 0 10 -3
12 -6 5 -2 -7 -14 -13 -24 -13 -11 0 -18 -4 -15 -9 10 -16 -17 -18 -43 -5 -30
16 -28 16 -35 -20 -7 -36 -12 -42 -29 -28 -14 12 -27 7 -27 -10 0 -6 6 -8 12
-6 16 6 38 -16 38 -36 0 -8 4 -26 10 -40 8 -22 13 -24 34 -16 16 6 27 6 31 0
4 -6 -2 -11 -12 -11 -10 -1 -29 -3 -42 -4 -16 -2 -25 4 -29 17 -3 13 -11 18
-23 15 -14 -4 -21 2 -25 19 -5 20 -9 22 -20 13 -11 -9 -14 -7 -14 10 0 13 -6
21 -17 21 -15 0 -16 2 -3 10 13 8 13 10 -1 10 -20 0 -31 56 -17 83 6 12 5 16
-3 15 -7 -2 -13 13 -14 40 -1 23 0 42 1 42 1 0 9 -3 18 -6z m53 -20 c-3 -3
-12 -4 -19 -1 -8 3 -5 6 6 6 11 1 17 -2 13 -5z m-522 -14 c3 -5 1 -10 -4 -10
-6 0 -11 5 -11 10 0 6 2 10 4 10 3 0 8 -4 11 -10z m79 -22 c21 -29 20 -35 -5
-41 -12 -3 -18 -10 -15 -16 11 -16 -11 -22 -27 -7 -8 8 -17 13 -20 10 -3 -3
-14 -1 -24 5 -16 9 -16 10 5 11 17 0 22 5 20 18 -2 9 5 22 17 29 29 16 32 15
49 -9z m826 -8 c0 -5 -5 -10 -11 -10 -5 0 -7 5 -4 10 3 6 8 10 11 10 2 0 4 -4
4 -10z m-745 -10 c-3 -5 -10 -10 -16 -10 -5 0 -9 5 -9 10 0 6 7 10 16 10 8 0
12 -4 9 -10z m28 -11 c3 -12 3 -18 0 -15 -3 3 -14 1 -24 -5 -11 -5 -19 -7 -19
-4 0 4 29 40 36 44 1 1 4 -8 7 -20z m667 -9 c0 -5 -5 -10 -11 -10 -5 0 -7 5
-4 10 3 6 8 10 11 10 2 0 4 -4 4 -10z m35 0 c3 -5 1 -10 -4 -10 -6 0 -11 5
-11 10 0 6 2 10 4 10 3 0 8 -4 11 -10z m-620 -39 c2 -26 1 -28 -12 -16 -8 8
-11 19 -8 25 3 5 -2 10 -12 11 -16 0 -16 1 2 8 25 11 27 8 30 -28z m-105 -33
c0 -5 -5 -8 -11 -8 -5 0 -8 4 -5 9 3 5 -1 11 -9 15 -8 3 -15 13 -15 23 0 15 4
14 20 -7 11 -14 20 -28 20 -32z m-170 32 c0 -5 -4 -10 -9 -10 -6 0 -13 5 -16
10 -3 6 1 10 9 10 9 0 16 -4 16 -10z m112 -5 c0 -5 -5 -11 -11 -13 -6 -2 -11
4 -11 13 0 9 5 15 11 13 6 -2 11 -8 11 -13z m535 -1 c-3 -3 -12 -4 -19 -1 -8
3 -5 6 6 6 11 1 17 -2 13 -5z m-420 -46 c-7 -4 -16 -8 -22 -8 -5 0 -3 5 5 10
8 5 11 10 7 10 -5 0 -5 5 -1 11 4 8 9 7 15 -2 5 -8 3 -17 -4 -21z m563 22 c0
-5 -5 -10 -11 -10 -5 0 -7 5 -4 10 3 6 8 10 11 10 2 0 4 -4 4 -10z m-801 -4
c-2 -2 -14 -9 -26 -15 -19 -10 -22 -9 -17 4 4 8 15 15 27 15 11 0 18 -2 16 -4z
m661 -15 c0 -14 -5 -18 -20 -14 -25 7 -26 20 -2 26 9 3 18 5 20 6 1 0 2 -8 2
-18z m-440 -31 c0 -5 -5 -10 -11 -10 -5 0 -7 5 -4 10 3 6 8 10 11 10 2 0 4 -4
4 -10z m603 -5 c-6 -17 -25 -15 -31 3 -2 7 5 12 17 12 14 0 19 -5 14 -15z
m-43 -10 c0 -2 -9 -3 -19 -2 -11 0 -18 5 -15 9 4 6 34 0 34 -7z m-680 -5 c0
-5 -4 -10 -10 -10 -5 0 -10 5 -10 10 0 6 5 10 10 10 6 0 10 -4 10 -10z m716
-22 c4 -7 3 -8 -4 -4 -7 4 -12 1 -12 -8 0 -9 -3 -15 -7 -15 -23 4 -24 -3 -4
-24 19 -21 20 -25 6 -37 -8 -7 -15 -9 -16 -4 -2 29 -9 49 -18 52 -5 2 -7 10
-4 18 3 7 9 12 13 9 4 -3 13 2 20 10 15 18 17 18 26 3z m-339 -4 c-3 -3 -12
-4 -19 -1 -8 3 -5 6 6 6 11 1 17 -2 13 -5z m-442 -24 c3 -5 2 -10 -4 -10 -5 0
-13 5 -16 10 -3 6 -2 10 4 10 5 0 13 -4 16 -10z m689 -6 c9 -22 -3 -32 -14
-14 -12 19 -12 30 -1 30 5 0 12 -7 15 -16z m-634 -9 c0 -8 -4 -15 -10 -15 -5
0 -10 7 -10 15 0 8 5 15 10 15 6 0 10 -7 10 -15z m397 -37 c-7 -4 -21 -7 -32
-7 -11 0 -14 3 -7 6 6 2 9 9 6 15 -12 18 19 28 32 10 9 -13 9 -19 1 -24z m97
27 c-4 -8 -11 -15 -16 -15 -6 0 -5 6 2 15 7 8 14 15 16 15 2 0 1 -7 -2 -15z
m116 5 c0 -5 -4 -10 -10 -10 -5 0 -10 5 -10 10 0 6 5 10 10 10 6 0 10 -4 10
-10z m-647 -40 c3 -11 1 -20 -4 -20 -5 0 -9 9 -9 20 0 11 2 20 4 20 2 0 6 -9
9 -20z m107 10 c0 -5 -2 -10 -4 -10 -3 0 -8 5 -11 10 -3 6 -1 10 4 10 6 0 11
-4 11 -10z m98 -16 c7 4 12 5 12 2 0 -2 3 -11 6 -20 4 -11 -1 -14 -23 -12 -17
1 -27 7 -25 15 2 9 -4 12 -18 8 -13 -3 -20 0 -20 8 0 19 33 24 46 6 6 -8 16
-11 22 -7z m-131 -1 c2 -6 -3 -17 -11 -26 -8 -8 -12 -18 -8 -22 4 -5 -1 -5
-10 -2 -9 3 -19 1 -22 -6 -2 -7 -5 -4 -5 6 -1 9 6 17 14 17 9 0 15 10 15 26 0
25 20 30 27 7z m502 -4 c-19 -12 -29 -11 -29 2 0 5 5 7 10 4 6 -3 10 -1 10 5
0 6 5 8 11 4 8 -4 7 -9 -2 -15z m148 -15 c12 -18 11 -23 -9 -40 -21 -18 -21
-18 -15 0 5 12 1 23 -9 31 -10 7 -14 17 -10 24 10 16 26 10 43 -15z m-894 2
c23 -18 22 -26 -6 -26 -16 0 -23 6 -24 20 -2 23 5 25 30 6z m612 4 c3 -5 -1
-10 -9 -10 -9 0 -16 5 -16 10 0 6 4 10 9 10 6 0 13 -4 16 -10z m212 -32 c-3
-8 -6 -5 -6 6 -1 11 2 17 5 13 3 -3 4 -12 1 -19z m141 -6 c2 -7 -6 -12 -17
-12 -21 0 -27 11 -14 24 9 9 26 2 31 -12z m-641 -28 c-9 -9 -28 6 -21 18 4 6
10 6 17 -1 6 -6 8 -13 4 -17z"/>
<path d="M3585 1280 c-3 -5 -1 -10 4 -10 6 0 11 5 11 10 0 6 -2 10 -4 10 -3 0
-8 -4 -11 -10z"/>
<path d="M620 1269 c0 -5 5 -7 10 -4 6 3 10 8 10 11 0 2 -4 4 -10 4 -5 0 -10
-5 -10 -11z"/>
<path d="M211 1251 c-8 -5 -9 -11 -3 -15 5 -3 12 1 16 9 6 17 6 18 -13 6z"/>
<path d="M700 1248 c0 -4 4 -8 9 -8 6 0 12 4 15 8 3 5 -1 9 -9 9 -8 0 -15 -4
-15 -9z"/>
<path d="M2847 1236 c-5 -15 -6 -31 -3 -34 8 -8 18 25 14 45 -3 13 -6 10 -11
-11z"/>
<path d="M3756 1245 c-3 -8 -1 -15 4 -15 6 0 10 7 10 15 0 8 -2 15 -4 15 -2 0
-6 -7 -10 -15z"/>
<path d="M180 1230 c0 -5 5 -10 11 -10 5 0 7 5 4 10 -3 6 -8 10 -11 10 -2 0
-4 -4 -4 -10z"/>
<path d="M510 1225 c-14 -16 -3 -20 19 -6 8 5 9 11 3 15 -5 3 -15 -1 -22 -9z"/>
<path d="M3790 1234 c0 -17 17 -36 24 -26 3 5 -1 15 -9 22 -8 7 -15 9 -15 4z"/>
<path d="M3830 1231 c0 -10 19 -25 25 -20 1 2 -3 10 -11 17 -8 7 -14 8 -14 3z"/>
<path d="M3720 1214 c0 -8 5 -12 10 -9 6 3 10 10 10 16 0 5 -4 9 -10 9 -5 0
-10 -7 -10 -16z"/>
<path d="M559 1194 c-12 -14 -11 -16 5 -13 11 2 21 10 24 17 5 17 -13 15 -29
-4z"/>
<path d="M180 1169 c0 -5 5 -7 10 -4 6 3 10 8 10 11 0 2 -4 4 -10 4 -5 0 -10
-5 -10 -11z"/>
<path d="M494 1169 c-10 -17 13 -36 27 -22 12 12 4 33 -11 33 -5 0 -12 -5 -16
-11z"/>
<path d="M3630 1171 c0 -5 -8 -8 -17 -7 -29 2 -26 -29 4 -43 28 -13 28 -13 9
8 -12 13 -14 21 -7 21 7 0 19 7 27 15 14 13 14 15 0 15 -9 0 -16 -4 -16 -9z"/>
<path d="M3243 1154 c-3 -8 0 -21 7 -27 10 -10 12 -7 7 11 -5 19 -3 21 9 11
12 -10 13 -9 8 5 -8 20 -23 21 -31 0z"/>
<path d="M3719 1153 c-1 -5 -1 -11 0 -15 0 -5 -11 -9 -26 -9 -25 -2 -25 -2 -5
-6 23 -5 52 11 52 28 0 11 -20 12 -21 2z"/>
<path d="M648 1143 c6 -2 18 -2 25 0 6 3 1 5 -13 5 -14 0 -19 -2 -12 -5z"/>
<path d="M210 1131 c0 -6 6 -11 13 -11 7 0 20 -9 30 -20 24 -28 45 -26 40 4
-3 15 -12 24 -22 24 -9 -1 -26 2 -38 6 -14 5 -23 3 -23 -3z"/>
<path d="M3208 1133 c7 -3 16 -2 19 1 4 3 -2 6 -13 5 -11 0 -14 -3 -6 -6z"/>
<path d="M482 1110 c14 -22 24 -19 15 5 -4 8 -11 15 -17 15 -6 0 -6 -7 2 -20z"/>
<path d="M640 1121 c0 -14 18 -23 31 -15 8 4 7 9 -2 15 -18 11 -29 11 -29 0z"/>
<path d="M225 1100 c3 -5 8 -10 11 -10 2 0 4 5 4 10 0 6 -5 10 -11 10 -5 0 -7
-4 -4 -10z"/>
<path d="M3572 1098 c11 -6 10 -10 -1 -17 -11 -7 -11 -10 0 -17 7 -4 14 -3 17
4 2 7 10 18 17 26 11 10 8 13 -16 13 -20 0 -25 -3 -17 -9z"/>
<path d="M513 1085 c-9 -25 4 -29 17 -6 7 15 7 21 0 21 -6 0 -13 -7 -17 -15z"/>
<path d="M3770 1083 c-13 -15 -12 -16 4 -10 10 4 20 7 22 7 2 0 4 5 4 10 0 15
-13 12 -30 -7z"/>
<path d="M570 1070 c-9 -16 -8 -20 5 -20 8 0 15 5 15 11 0 6 9 8 23 4 22 -7
22 -7 2 9 -26 20 -32 20 -45 -4z"/>
<path d="M3527 1083 c-4 -3 -7 -15 -7 -26 0 -18 15 -16 15 1 0 4 4 13 8 20 8
12 -5 17 -16 5z"/>
<path d="M55 1060 c-3 -5 -2 -10 4 -10 5 0 13 5 16 10 3 6 2 10 -4 10 -5 0
-13 -4 -16 -10z"/>
<path d="M378 1063 c7 -3 16 -2 19 1 4 3 -2 6 -13 5 -11 0 -14 -3 -6 -6z"/>
<path d="M3760 1049 c0 -6 -6 -9 -14 -6 -8 3 -17 -1 -20 -9 -4 -10 4 -18 24
-26 17 -5 30 -17 30 -25 0 -13 2 -13 17 -2 9 8 18 13 20 12 1 -2 8 -3 15 -3
16 0 1 13 -18 16 -31 5 -49 15 -37 22 8 5 7 11 -3 20 -10 9 -14 9 -14 1z"/>
<path d="M3448 1028 c-7 -16 7 -46 17 -37 3 4 2 16 -3 29 -7 18 -10 20 -14 8z"/>
<path d="M570 1010 c0 -19 3 -21 12 -12 9 9 9 15 0 24 -9 9 -12 7 -12 -12z"/>
<path d="M2790 1010 c0 -5 5 -10 11 -10 5 0 7 -5 4 -10 -4 -6 -11 -7 -17 -4
-6 4 -14 0 -19 -7 -14 -22 -10 -30 9 -20 37 22 42 28 36 44 -7 18 -24 23 -24
7z"/>
<path d="M3865 999 c-15 -5 -8 -8 25 -10 42 -4 45 -6 42 -31 -2 -16 2 -28 9
-28 6 0 8 7 5 15 -3 9 1 18 9 21 8 4 15 11 15 16 0 6 -7 8 -15 4 -9 -3 -15 0
-15 8 0 14 -44 17 -75 5z"/>
<path d="M370 990 c0 -5 5 -10 10 -10 6 0 10 5 10 10 0 6 -4 10 -10 10 -5 0
-10 -4 -10 -10z"/>
<path d="M420 980 c-9 -6 -10 -10 -3 -10 6 0 15 5 18 10 8 12 4 12 -15 0z"/>
<path d="M3455 947 c-10 -8 -14 -17 -9 -20 6 -3 15 3 22 14 14 23 12 24 -13 6z"/>
<path d="M447 913 c-4 -3 -7 -13 -7 -22 1 -13 3 -13 11 2 11 19 8 33 -4 20z"/>
<path d="M0 903 c0 -20 16 -23 36 -8 17 13 18 14 2 15 -10 0 -18 -6 -18 -12 0
-9 -4 -8 -10 2 -6 9 -10 10 -10 3z"/>
<path d="M140 890 c0 -5 5 -10 10 -10 6 0 10 5 10 10 0 6 -4 10 -10 10 -5 0
-10 -4 -10 -10z"/>
<path d="M3808 893 c7 -3 16 -2 19 1 4 3 -2 6 -13 5 -11 0 -14 -3 -6 -6z"/>
<path d="M2576 854 c-9 -23 -7 -27 9 -20 14 5 20 -5 16 -27 -1 -5 3 -6 7 -3
13 8 3 54 -13 60 -7 2 -16 -2 -19 -10z"/>
<path d="M2623 851 c0 -11 5 -17 9 -15 11 7 10 34 -1 34 -6 0 -9 -9 -8 -19z"/>
<path d="M3990 834 c0 -11 -6 -14 -20 -9 -12 4 -20 2 -20 -5 0 -6 5 -8 10 -5
6 3 10 2 10 -3 0 -6 -7 -13 -16 -16 -22 -8 -10 -19 21 -21 22 -1 25 3 25 37 0
21 -2 38 -5 38 -3 0 -5 -7 -5 -16z"/>
<path d="M2698 823 c7 -3 16 -2 19 1 4 3 -2 6 -13 5 -11 0 -14 -3 -6 -6z"/>
<path d="M57 813 c-4 -3 -7 -17 -7 -30 0 -14 -6 -23 -15 -23 -10 0 -12 6 -8
18 6 15 5 15 -10 3 -9 -7 -17 -26 -17 -42 0 -27 2 -29 27 -24 27 6 27 6 9 -9
-11 -9 -23 -16 -28 -16 -4 0 -8 -4 -8 -10 0 -19 22 -10 51 21 25 27 27 33 16
56 -9 21 -9 27 1 31 6 2 12 10 12 18 0 15 -12 19 -23 7z"/>
<path d="M3261 764 c0 -11 3 -14 6 -6 3 7 2 16 -1 19 -3 4 -6 -2 -5 -13z"/>
<path d="M76 755 c4 -8 11 -12 16 -9 6 4 8 -2 4 -15 -3 -11 -8 -30 -11 -40 -5
-16 -2 -19 17 -15 13 2 17 2 11 -2 -7 -3 -13 -13 -13 -22 1 -14 3 -14 16 3 8
11 12 29 9 40 -4 11 -7 28 -8 38 -2 17 -23 37 -39 37 -4 0 -5 -7 -2 -15z"/>
<path d="M3292 750 c2 -9 -4 -14 -14 -14 -28 3 -21 -13 7 -18 32 -7 42 9 21
30 -14 14 -17 14 -14 2z"/>
<path d="M3575 690 c3 -5 8 -10 11 -10 2 0 4 5 4 10 0 6 -5 10 -11 10 -5 0 -7
-4 -4 -10z"/>
<path d="M3610 679 c0 -5 9 -9 20 -9 11 0 20 2 20 4 0 2 -9 6 -20 9 -11 3 -20
1 -20 -4z"/>
<path d="M3543 672 c-6 -4 -9 -18 -8 -32 1 -14 3 -31 4 -39 1 -10 4 -11 15 -2
10 8 16 9 21 1 3 -5 11 -10 16 -10 6 0 7 5 3 12 -5 8 -2 9 9 5 10 -3 17 -2 17
2 0 5 -7 11 -15 15 -8 3 -15 2 -15 -3 0 -4 -11 -6 -25 -3 -25 4 -31 29 -10 44
13 9 2 19 -12 10z"/>
<path d="M160 667 c0 -16 33 -57 41 -51 15 9 11 47 -5 41 -7 -3 -19 0 -25 6
-6 6 -11 8 -11 4z"/>
<path d="M3060 655 c0 -15 25 -14 40 1 5 5 0 10 -16 10 -14 1 -24 -4 -24 -11z"/>
<path d="M3500 646 c0 -9 -9 -16 -21 -16 -11 0 -18 -4 -14 -10 3 -6 15 -5 30
2 27 12 31 23 15 33 -5 3 -10 -1 -10 -9z"/>
<path d="M3987 641 c-4 -17 -3 -21 5 -13 5 5 8 16 6 23 -3 8 -7 3 -11 -10z"/>
<path d="M116 633 l-29 -15 23 -18 c26 -19 22 -57 -5 -46 -13 5 -14 2 -5 -15
11 -20 12 -19 39 12 18 21 31 28 35 20 4 -6 1 -11 -9 -11 -13 0 -14 -2 -3 -14
10 -11 15 -11 20 -2 14 24 -4 57 -33 63 -30 6 -40 23 -14 23 8 0 15 5 15 10 0
12 1 13 -34 -7z"/>
<path d="M667 633 c-8 -14 -183 -47 -204 -39 -9 4 -45 -8 -81 -25 -37 -17 -80
-32 -97 -34 -16 -1 -55 -14 -85 -29 -74 -36 -115 -47 -129 -33 -8 8 -11 8 -11
-2 0 -7 -5 -9 -11 -5 -8 4 -7 9 2 15 11 6 11 11 1 21 -9 9 -16 7 -32 -10 -24
-25 -28 -67 -5 -58 8 3 15 0 15 -6 0 -9 3 -9 12 0 15 15 48 16 48 1 0 -5 5 -7
10 -4 6 4 8 10 5 15 -3 4 11 11 30 14 19 4 35 10 35 15 0 9 66 41 86 41 9 0
52 16 97 35 47 20 97 35 120 35 21 0 85 9 140 20 101 20 148 34 95 26 -15 -1
-29 2 -31 7 -2 8 -5 8 -10 0z"/>
<path d="M3030 634 c0 -2 9 -8 20 -14 11 -6 20 -7 20 -2 0 6 -9 12 -20 15 -11
3 -20 3 -20 1z"/>
<path d="M21 583 c-18 -19 -10 -25 12 -8 10 7 15 15 10 18 -4 3 -14 -2 -22
-10z"/>
<path d="M3190 585 c-8 -9 -8 -15 -2 -15 12 0 26 19 19 26 -2 2 -10 -2 -17
-11z"/>
<path d="M66 565 c-17 -13 -18 -15 -3 -15 9 0 17 5 17 11 0 6 9 8 20 4 11 -4
20 -2 20 4 0 16 -32 13 -54 -4z"/>
<path d="M3455 547 c-4 -10 -5 -21 -1 -24 10 -10 18 4 13 24 -4 17 -4 17 -12
0z"/>
<path d="M18 523 c7 -3 16 -2 19 1 4 3 -2 6 -13 5 -11 0 -14 -3 -6 -6z"/>
<path d="M2627 496 c-4 -10 -7 -27 -7 -37 0 -16 6 -20 27 -17 29 3 45 28 19
28 -9 0 -20 10 -25 22 -7 19 -8 19 -14 4z"/>
<path d="M276 465 c-6 -16 -9 -17 -16 -5 -6 8 -10 10 -10 4 0 -6 7 -17 15 -24
12 -10 16 -9 21 4 3 8 4 21 2 28 -3 7 -7 5 -12 -7z"/>
<path d="M188 463 c10 -4 8 -11 -8 -28 -18 -19 -19 -23 -6 -28 11 -5 16 0 16
14 0 11 7 22 15 25 23 9 18 24 -7 23 -13 0 -17 -3 -10 -6z"/>
<path d="M2926 455 c-3 -9 0 -15 9 -15 9 0 12 6 9 15 -4 8 -7 15 -9 15 -2 0
-5 -7 -9 -15z"/>
<path d="M46 415 c-9 -9 -17 -11 -21 -5 -9 15 -25 12 -25 -4 0 -22 41 -28 56
-8 24 31 16 43 -10 17z"/>
<path d="M70 395 c-6 -8 -9 -18 -6 -24 3 -5 -1 -11 -9 -15 -15 -5 -22 -46 -7
-46 20 1 32 19 30 46 -1 16 1 35 6 42 10 17 1 15 -14 -3z"/>
<path d="M91 374 c0 -11 3 -14 6 -6 3 7 2 16 -1 19 -3 4 -6 -2 -5 -13z"/>
<path d="M13 363 c4 -3 2 -12 -5 -20 -12 -15 -5 -28 11 -18 15 8 14 45 -1 45
-6 0 -8 -3 -5 -7z"/>
<path d="M115 329 c-8 -25 1 -37 17 -21 9 9 9 12 -1 12 -11 0 -11 3 -1 15 8 9
8 15 2 15 -6 0 -14 -9 -17 -21z"/>
<path d="M384 324 c6 -16 -4 -25 -18 -17 -20 13 -35 11 -29 -3 7 -19 62 -18
69 1 4 8 12 15 20 15 8 0 14 4 14 8 0 5 -14 9 -30 9 -20 0 -29 -5 -26 -13z"/>
<path d="M0 301 c0 -5 6 -12 13 -14 10 -4 10 -6 0 -6 -7 -1 -12 -11 -12 -23 1
-17 2 -19 6 -5 8 29 20 19 31 -24 8 -31 8 -39 -1 -30 -21 21 -32 11 -34 -34
-1 -45 -1 -45 16 -23 l18 21 -1 -23 c-1 -18 5 -23 28 -26 37 -4 40 -8 24 -36
-31 -55 -68 -78 -68 -42 0 14 2 15 17 3 10 -8 14 -9 10 -2 -4 6 -3 14 3 18 13
8 13 45 0 45 -5 0 -10 -6 -10 -14 0 -8 -7 -16 -15 -20 -10 -3 -15 1 -15 13 0
11 6 22 12 24 8 3 6 6 -4 6 -15 1 -18 -8 -18 -55 l0 -56 63 5 c42 2 61 8 59
16 -1 7 2 10 8 6 6 -3 8 -10 5 -14 -2 -5 18 -9 45 -10 41 0 50 2 50 17 0 14
-2 14 -9 3 -8 -12 -12 -12 -26 3 -14 13 -15 19 -5 31 17 21 37 19 43 -5 3 -11
11 -20 19 -20 10 0 9 3 -2 11 -13 9 -13 10 0 6 8 -2 16 -12 18 -23 2 -17 12
-19 85 -21 45 -1 87 3 94 9 8 6 13 7 13 1 0 -6 26 -10 58 -11 31 0 51 2 45 4
-7 3 -13 18 -14 32 l-1 27 -7 -24 c-8 -30 -31 -40 -31 -14 0 14 -2 15 -9 4
-14 -22 -33 -4 -20 20 6 12 8 23 5 26 -12 12 16 44 33 38 12 -4 21 0 25 11 4
9 9 14 12 11 3 -3 1 -15 -6 -26 -6 -12 -8 -26 -4 -32 3 -6 17 11 30 37 28 55
29 61 10 45 -11 -10 -15 -8 -19 6 -4 17 -5 17 -6 1 0 -10 -9 -18 -19 -18 -10
0 -24 -6 -31 -13 -11 -10 -12 -9 -6 2 5 8 -3 6 -21 -5 -28 -19 -28 -19 -20 1
5 11 10 34 12 50 3 30 3 30 -13 8 -10 -15 -26 -23 -44 -23 -16 0 -29 -5 -29
-11 0 -5 4 -8 9 -5 5 3 9 -5 9 -19 0 -14 -5 -22 -11 -18 -6 4 -7 1 -2 -7 4 -7
2 -16 -6 -21 -11 -6 -10 -12 6 -28 21 -24 13 -40 -10 -21 -12 10 -18 10 -29 1
-20 -17 -16 6 7 39 9 13 17 34 16 45 0 11 -3 14 -6 8 -2 -7 -17 -12 -31 -12
-17 1 -21 3 -9 6 9 2 15 9 11 14 -3 5 -9 7 -14 4 -4 -3 -10 2 -14 10 -3 10 1
15 13 15 25 0 51 10 51 20 0 4 -11 5 -25 2 -18 -3 -25 0 -25 12 0 23 -23 10
-43 -25 -15 -27 -15 -30 -2 -25 10 3 13 2 10 -5 -4 -5 -15 -7 -26 -4 -11 4
-19 2 -19 -4 0 -6 5 -11 11 -11 5 0 7 -5 3 -11 -4 -8 -9 -7 -15 2 -6 10 -11
11 -19 3 -8 -8 -18 -8 -36 0 -33 15 -30 26 6 26 17 0 30 5 30 11 0 6 -7 9 -15
5 -24 -9 -17 4 8 15 21 9 20 9 -5 6 -16 -3 -28 0 -28 4 0 5 -5 9 -11 9 -6 0
-9 -7 -6 -15 9 -21 -9 -28 -26 -10 -11 11 -22 12 -39 6 -13 -6 -17 -11 -10
-12 6 -1 17 -3 22 -4 6 -1 15 -3 20 -4 6 0 10 -5 10 -10 0 -4 -12 -6 -26 -3
-16 3 -25 1 -21 -5 3 -5 -11 -10 -31 -11 -30 -2 -34 0 -19 9 9 5 17 18 17 29
0 10 6 21 13 23 7 3 5 6 -5 6 -10 1 -19 9 -20 19 -1 9 -2 24 -4 32 -1 8 -2 20
-3 26 -1 13 -51 37 -51 25z m160 -176 c0 -2 -9 -9 -20 -15 -12 -6 -20 -7 -20
-1 0 5 8 12 18 14 9 3 18 5 20 6 1 0 2 -1 2 -4z m175 -32 c-2 -10 -4 -26 -4
-35 -1 -11 -9 -18 -22 -18 -13 0 -18 -4 -13 -12 4 -7 3 -9 -1 -5 -5 4 -11 19
-12 32 -3 19 1 25 16 25 10 0 21 7 25 15 8 21 15 19 11 -2z m-199 -29 c-30
-21 -42 -17 -15 5 13 11 26 17 29 14 3 -2 -4 -11 -14 -19z m334 10 c0 -8 -4
-12 -10 -9 -5 3 -10 10 -10 16 0 5 5 9 10 9 6 0 10 -7 10 -16z m-50 -4 c0 -5
-4 -10 -10 -10 -5 0 -10 5 -10 10 0 6 5 10 10 10 6 0 10 -4 10 -10z m-335 -50
c-3 -5 -11 -10 -16 -10 -6 0 -7 5 -4 10 3 6 11 10 16 10 6 0 7 -4 4 -10z"/>
<path d="M70 296 c0 -8 5 -18 11 -22 8 -4 7 -9 -2 -15 -10 -6 -8 -9 9 -9 12 0
22 -4 22 -8 0 -5 7 -9 15 -9 17 0 20 24 5 47 -8 13 -10 12 -10 -2 0 -10 -4
-18 -8 -18 -15 0 -30 22 -25 36 3 8 0 14 -6 14 -6 0 -11 -6 -11 -14z"/>
<path d="M160 300 c-13 -9 -10 -15 15 -37 18 -16 23 -24 12 -20 -23 9 -38 1
-31 -17 7 -18 62 -15 74 4 9 13 10 13 10 0 0 -9 11 -2 26 18 14 18 30 30 35
27 5 -4 9 1 9 9 0 10 -7 15 -17 12 -29 -5 -53 -18 -49 -25 3 -4 -8 -6 -22 -5
-20 0 -28 7 -30 22 -4 24 -10 27 -32 12z"/>
<path d="M205 290 c-3 -5 -2 -10 4 -10 5 0 13 5 16 10 3 6 2 10 -4 10 -5 0
-13 -4 -16 -10z"/>
<path d="M3106 283 c-6 -14 -5 -15 5 -6 7 7 10 15 7 18 -3 3 -9 -2 -12 -12z"/>
<path d="M3830 276 c0 -2 15 -6 34 -8 19 -2 32 0 30 4 -5 8 -64 12 -64 4z"/>
<path d="M3137 240 c8 -32 30 -44 36 -20 3 11 1 18 -4 14 -5 -3 -9 -1 -9 4 0
6 -6 12 -14 15 -10 4 -12 0 -9 -13z"/>
<path d="M325 240 c-3 -5 -1 -10 4 -10 6 0 11 5 11 10 0 6 -2 10 -4 10 -3 0
-8 -4 -11 -10z"/>
<path d="M3838 243 c7 -3 16 -2 19 1 4 3 -2 6 -13 5 -11 0 -14 -3 -6 -6z"/>
<path d="M3870 228 c0 -4 4 -8 9 -8 6 0 12 4 15 8 3 5 -1 9 -9 9 -8 0 -15 -4
-15 -9z"/>
<path d="M591 194 c0 -11 3 -14 6 -6 3 7 2 16 -1 19 -3 4 -6 -2 -5 -13z"/>
<path d="M523 185 c6 -7 15 -11 20 -8 13 8 7 19 -13 20 -16 1 -17 -1 -7 -12z"/>
<path d="M3973 183 c-7 -3 -13 -9 -13 -14 0 -6 5 -7 12 -3 6 4 8 3 4 -4 -3 -6
-15 -11 -26 -11 -11 -1 -29 -1 -40 -2 -11 0 -20 -4 -20 -10 0 -5 -12 -9 -27
-9 -21 0 -24 3 -15 12 20 20 14 25 -32 24 -36 0 -41 -2 -30 -13 7 -7 21 -13
31 -14 16 0 16 -1 -2 -9 -18 -8 -18 -9 -2 -9 22 -1 39 -41 24 -59 -7 -9 -7
-16 1 -24 9 -9 12 -8 12 5 0 14 4 16 19 7 27 -14 31 -13 31 10 0 11 7 20 15
20 18 0 20 -21 3 -39 -11 -11 -10 -12 1 -6 11 6 13 3 9 -11 -4 -16 0 -20 21
-19 20 0 25 5 23 19 -3 14 1 17 12 13 11 -5 16 0 16 14 0 16 -4 19 -20 14 -15
-5 -20 -2 -20 10 0 11 -5 15 -15 11 -8 -3 -15 -1 -15 3 0 13 25 20 48 15 17
-5 19 0 19 35 0 44 -4 51 -24 44z m-22 -146 c-8 -8 -11 -3 -11 19 1 25 2 27
11 11 8 -14 8 -22 0 -30z"/>
<path d="M3760 135 c0 -8 4 -15 10 -15 5 0 7 7 4 15 -4 8 -8 15 -10 15 -2 0
-4 -7 -4 -15z"/>
<path d="M616 127 c3 -10 9 -15 12 -12 3 3 0 11 -7 18 -10 9 -11 8 -5 -6z"/>
<path d="M3730 130 c0 -5 5 -10 11 -10 5 0 7 5 4 10 -3 6 -8 10 -11 10 -2 0
-4 -4 -4 -10z"/>
<path d="M3780 100 c0 -5 -9 -10 -20 -10 -11 0 -20 -4 -20 -10 0 -5 8 -6 18
-3 13 5 15 4 6 -8 -14 -20 -12 -41 6 -47 8 -3 12 -1 8 3 -4 4 0 13 9 20 20 15
24 65 6 65 -7 0 -13 -4 -13 -10z"/>
<path d="M511 76 c-9 -10 -8 -15 3 -19 10 -4 14 0 13 14 -2 23 -1 23 -16 5z"/>
<path d="M585 80 c-3 -5 -1 -10 4 -10 6 0 11 5 11 10 0 6 -2 10 -4 10 -3 0 -8
-4 -11 -10z"/>
<path d="M610 70 c0 -5 0 -13 1 -16 0 -4 -5 -11 -13 -15 -7 -5 -8 -9 -3 -9 18
1 47 29 40 39 -8 14 -25 14 -25 1z"/>
<path d="M3696 55 c-11 -8 -15 -15 -10 -15 6 0 19 7 30 15 10 8 15 14 9 14 -5
0 -19 -6 -29 -14z"/>
<path d="M3790 10 c0 -5 5 -10 11 -10 5 0 7 5 4 10 -3 6 -8 10 -11 10 -2 0 -4
-4 -4 -10z"/>
<path d="M3850 10 c0 -5 7 -10 15 -10 8 0 15 5 15 10 0 6 -7 10 -15 10 -8 0
-15 -4 -15 -10z"/>
</g>
</svg>
